<svg class="pic cls dcl" id="pic" xmlns="http://www.w3.org/2000/svg"><defs><marker id="ar" viewBox="0 0 10 10" refX="9.5" refY="5" markerWidth="9" markerHeight="9" orient="auto-start-reverse"><path d="M0,1 L10,5 L0,9" fill="none" stroke="context-stroke" stroke-width="1.111"/></marker><marker id="tri" viewBox="0 0 12 12" refX="11" refY="6" markerWidth="10.8" markerHeight="10.8" orient="auto-start-reverse"><path d="M0,0.5 L11,6 L0,11.5 Z" fill="var(--panel)" stroke="context-stroke" stroke-width="1.111"/></marker><marker id="far" viewBox="0 0 10 10" refX="9.5" refY="5" markerWidth="9" markerHeight="9" orient="auto-start-reverse"><path d="M0,1 L10,5 L0,9 Z" fill="context-stroke" stroke="context-stroke" stroke-width="1.111" stroke-linejoin="round"/></marker><marker id="trid" viewBox="0 0 16 12" refX="15" refY="6" markerWidth="14.4" markerHeight="10.8" orient="auto-start-reverse"><path d="M4,0.5 L15,6 L4,11.5 Z" fill="var(--panel)" stroke="context-stroke" stroke-width="1.111"/><circle cx="1.8" cy="3.4" r="1.1" fill="context-stroke"/><circle cx="1.8" cy="8.6" r="1.1" fill="context-stroke"/></marker><marker id="trib" viewBox="0 0 14 12" refX="13" refY="6" markerWidth="12.6" markerHeight="10.8" orient="auto-start-reverse"><path d="M3,0.5 L13,6 L3,11.5 Z" fill="var(--panel)" stroke="context-stroke" stroke-width="1.111"/><path d="M1.3,0.8 V11.2" fill="none" stroke="context-stroke" stroke-width="1.111"/></marker><marker id="dia" viewBox="0 0 14 10" refX="13" refY="5" markerWidth="12.6" markerHeight="9" orient="auto-start-reverse"><path d="M0,5 L6,1 L13,5 L6,9 Z" fill="context-stroke" stroke="context-stroke" stroke-width="1.111"/></marker><marker id="odia" viewBox="0 0 14 10" refX="13" refY="5" markerWidth="12.6" markerHeight="9" orient="auto-start-reverse"><path d="M0,5 L6,1 L13,5 L6,9 Z" fill="var(--panel)" stroke="context-stroke" stroke-width="1.111"/></marker><marker id="por" viewBox="0 0 14 14" refX="13.5" refY="7" markerWidth="12.6" markerHeight="12.6" orient="auto-start-reverse"><path d="M8,7 L3.79,3.46 A5.5,5.5 0 1 1 3.79,10.54 Z" fill="context-stroke" stroke="context-stroke" stroke-width="1.111"/></marker></defs><g id="zoom"><rect class="fr" x="0" y="18" width="1568" height="611" rx="10"/><rect class="frt" x="0" y="18" width="472" height="18" rx="2"/><text class="frn" x="8" y="30.5">«view» la_architecture : StandardViewDefinitions::InterconnectionView</text><g class="nd" tabindex="0" role="button" aria-pressed="false" aria-label="part sensing" data-el="LaArchitecture::sensing" data-x="320" data-y="60" data-w="156" data-h="49" data-plain="1" transform="translate(320,60)"><rect class="bx" width="156" height="49" rx="10"/><rect class="hd" x="1" y="1" width="154" height="33" rx="1"/><text class="kk kw" x="78" y="11.5" text-anchor="middle">«part»</text><text class="nn bd" x="78" y="27" text-anchor="middle">sensing : Sensing</text><rect class="pt cj" x="-5" y="20" width="10" height="10" tabindex="0" role="button" rx="3" aria-label="conjugated port ^air" data-port="LaArchitecture::sensing::air" data-side="w" data-dir="in" data-px="320" data-py="85"/><path class="pd" d="M-3,22 L3,25 L-3,28"/><text class="ft" x="-9" y="41" text-anchor="end" data-port="LaArchitecture::sensing::air" data-px="320" data-py="85">^air : ~ThermalPort</text><rect class="pt" x="151" y="20" width="10" height="10" tabindex="0" role="button" rx="3" aria-label="port ^samples" data-port="LaArchitecture::sensing::samples" data-side="e" data-dir="out" data-px="476" data-py="85"/><path class="pd" d="M153,22 L159,25 L153,28"/><text class="ft" x="165" y="41" text-anchor="start" data-port="LaArchitecture::sensing::samples" data-px="476" data-py="85">^samples : SampleFlow</text></g><g class="nd" tabindex="0" role="button" aria-pressed="false" aria-label="part alarm" data-el="LaArchitecture::alarm" data-x="640" data-y="220" data-w="150" data-h="49" data-plain="1" transform="translate(640,220)"><rect class="bx" width="150" height="49" rx="10"/><rect class="hd" x="1" y="1" width="148" height="33" rx="1"/><text class="kk kw" x="75" y="11.5" text-anchor="middle">«part»</text><text class="nn bd" x="75" y="27" text-anchor="middle">alarm : Alarm</text><rect class="pt cj" x="-5" y="7" width="10" height="10" tabindex="0" role="button" rx="3" aria-label="conjugated port ^samples" data-port="LaArchitecture::alarm::samples" data-side="w" data-dir="in" data-px="640" data-py="232"/><path class="pd" d="M-3,9 L3,12 L-3,15"/><text class="ft" x="-33" y="40.5" text-anchor="end" data-port="LaArchitecture::alarm::samples" data-px="640" data-py="232">^samples : ~SampleFlow</text><rect class="pt" x="145" y="7" width="10" height="10" tabindex="0" role="button" rx="3" aria-label="port ^alarmState" data-port="LaArchitecture::alarm::alarmState" data-side="e" data-dir="out" data-px="790" data-py="232"/><path class="pd" d="M147,9 L153,12 L147,15"/><text class="ft" x="252.5" y="23" text-anchor="start" data-port="LaArchitecture::alarm::alarmState" data-px="790" data-py="232">^alarmState : AlarmStateFlow</text><rect class="pt" x="145" y="20" width="10" height="10" tabindex="0" role="button" rx="3" aria-label="port ^records" data-port="LaArchitecture::alarm::records" data-side="e" data-dir="out" data-px="790" data-py="245"/><path class="pd" d="M147,22 L153,25 L147,28"/><text class="ft" x="229" y="59" text-anchor="start" data-port="LaArchitecture::alarm::records" data-px="790" data-py="245">^records : RecordFlow</text><rect class="pt cj" x="-5" y="20" width="10" height="10" tabindex="0" role="button" rx="3" aria-label="conjugated port ^powerEvents" data-port="LaArchitecture::alarm::powerEvents" data-side="w" data-dir="in" data-px="640" data-py="245"/><path class="pd" d="M-3,22 L3,25 L-3,28"/><path class="rule" d="M-129,-12 L-29,25" stroke-dasharray="2 3" data-pinleader="LaArchitecture::alarm::powerEvents"/><text class="ft" x="-49" y="-15" text-anchor="end" data-port="LaArchitecture::alarm::powerEvents" data-px="640" data-py="245">^powerEvents : ~PowerEventFlow</text><rect class="pt" x="45" y="44" width="10" height="10" tabindex="0" role="button" rx="3" aria-label="port ^heartbeat" data-port="LaArchitecture::alarm::heartbeat" data-side="s" data-dir="out" data-px="690" data-py="269"/><path class="pd" d="M47,46 L50,52 L53,46"/><path class="rule" d="M134.5,-3 L50,54" stroke-dasharray="2 3" data-pinleader="LaArchitecture::alarm::heartbeat"/><text class="ft" x="232.5" y="-6" text-anchor="end" data-port="LaArchitecture::alarm::heartbeat" data-px="690" data-py="269">^heartbeat : HeartbeatFlow</text><rect class="pt cj" x="95" y="44" width="10" height="10" tabindex="0" role="button" rx="3" aria-label="conjugated port ^service" data-port="LaArchitecture::alarm::service" data-side="s" data-dir="in" data-px="740" data-py="269"/><path class="pd" d="M97,52 L100,46 L103,52"/><text class="ft" x="300" y="304" text-anchor="end" data-port="LaArchitecture::alarm::service" data-px="740" data-py="269">^service : ~ServiceFlow</text><rect class="pt cj" x="-5" y="32" width="10" height="10" tabindex="0" role="button" rx="3" aria-label="conjugated port ^supply" data-port="LaArchitecture::alarm::supply" data-side="w" data-dir="in" data-px="640" data-py="257"/><path class="pd" d="M-3,34 L3,37 L-3,40"/><text class="ft" x="-7.5" y="115" text-anchor="end" data-port="LaArchitecture::alarm::supply" data-px="640" data-py="257">^supply : ~SupplyFlow</text><rect class="pt" x="145" y="32" width="10" height="10" tabindex="0" role="button" rx="3" aria-label="port ^alarmSignals" data-port="LaArchitecture::alarm::alarmSignals" data-side="e" data-dir="inout" data-px="790" data-py="257"/><path class="pd" d="M147,34 L153,37 L147,40"/><path class="pd" d="M153,34 L147,37 L153,40"/><text class="ft" x="405.5" y="69" text-anchor="start" data-port="LaArchitecture::alarm::alarmSignals" data-px="790" data-py="257">^alarmSignals : AlarmHmiPort</text></g><g class="nd" tabindex="0" role="button" aria-pressed="false" aria-label="part display" data-el="LaArchitecture::display" data-x="960" data-y="60" data-w="156" data-h="49" data-plain="1" transform="translate(960,60)"><rect class="bx" width="156" height="49" rx="10"/><rect class="hd" x="1" y="1" width="154" height="33" rx="1"/><text class="kk kw" x="78" y="11.5" text-anchor="middle">«part»</text><text class="nn bd" x="78" y="27" text-anchor="middle">display : Display</text><rect class="pt cj" x="-5" y="11" width="10" height="10" tabindex="0" role="button" rx="3" aria-label="conjugated port ^samples" data-port="LaArchitecture::display::samples" data-side="w" data-dir="in" data-px="960" data-py="76"/><path class="pd" d="M-3,13 L3,16 L-3,19"/><text class="ft" x="-82.5" y="27" text-anchor="end" data-port="LaArchitecture::display::samples" data-px="960" data-py="76">^samples : ~SampleFlow</text><rect class="pt cj" x="-5" y="28" width="10" height="10" tabindex="0" role="button" rx="3" aria-label="conjugated port ^alarmState" data-port="LaArchitecture::display::alarmState" data-side="w" data-dir="in" data-px="960" data-py="93"/><path class="pd" d="M-3,30 L3,33 L-3,36"/><text class="ft" x="-9" y="49" text-anchor="end" data-port="LaArchitecture::display::alarmState" data-px="960" data-py="93">^alarmState : ~AlarmStateFlow</text><rect class="pt" x="151" y="20" width="10" height="10" tabindex="0" role="button" rx="3" aria-label="port ^screen" data-port="LaArchitecture::display::screen" data-side="e" data-dir="out" data-px="1116" data-py="85"/><path class="pd" d="M153,22 L159,25 L153,28"/><text class="ft" x="165" y="41" text-anchor="start" data-port="LaArchitecture::display::screen" data-px="1116" data-py="85">^screen : ScreenPort</text></g><g class="nd" tabindex="0" role="button" aria-pressed="false" aria-label="part logging" data-el="LaArchitecture::logging" data-x="960" data-y="400" data-w="156" data-h="49" data-plain="1" transform="translate(960,400)"><rect class="bx" width="156" height="49" rx="10"/><rect class="hd" x="1" y="1" width="154" height="33" rx="1"/><text class="kk kw" x="78" y="11.5" text-anchor="middle">«part»</text><text class="nn bd" x="78" y="27" text-anchor="middle">logging : Logging</text><rect class="pt cj" x="-5" y="20" width="10" height="10" tabindex="0" role="button" rx="3" aria-label="conjugated port ^records" data-port="LaArchitecture::logging::records" data-side="w" data-dir="in" data-px="960" data-py="425"/><path class="pd" d="M-3,22 L3,25 L-3,28"/><text class="ft" x="-9" y="41" text-anchor="end" data-port="LaArchitecture::logging::records" data-px="960" data-py="425">^records : ~RecordFlow</text><rect class="pt" x="151" y="20" width="10" height="10" tabindex="0" role="button" rx="3" aria-label="port ^usb" data-port="LaArchitecture::logging::usb" data-side="e" data-dir="out" data-px="1116" data-py="425"/><path class="pd" d="M153,22 L159,25 L153,28"/><text class="ft" x="165" y="41" text-anchor="start" data-port="LaArchitecture::logging::usb" data-px="1116" data-py="425">^usb : UsbPort</text></g><g class="nd" tabindex="0" role="button" aria-pressed="false" aria-label="part power" data-el="LaArchitecture::power" data-x="320" data-y="400" data-w="150" data-h="49" data-plain="1" transform="translate(320,400)"><rect class="bx" width="150" height="49" rx="10"/><rect class="hd" x="1" y="1" width="148" height="33" rx="1"/><text class="kk kw" x="75" y="11.5" text-anchor="middle">«part»</text><text class="nn bd" x="75" y="27" text-anchor="middle">power : Power</text><rect class="pt cj" x="-5" y="20" width="10" height="10" tabindex="0" role="button" rx="3" aria-label="conjugated port ^mains" data-port="LaArchitecture::power::mains" data-side="w" data-dir="in" data-px="320" data-py="425"/><path class="pd" d="M-3,22 L3,25 L-3,28"/><text class="ft" x="-2.5" y="20" text-anchor="end" data-port="LaArchitecture::power::mains" data-px="320" data-py="425">^mains : ~PowerPort</text><rect class="pt" x="145" y="7" width="10" height="10" tabindex="0" role="button" rx="3" aria-label="port ^records" data-port="LaArchitecture::power::records" data-side="e" data-dir="out" data-px="470" data-py="412"/><path class="pd" d="M147,9 L153,12 L147,15"/><text class="ft" x="155" y="7" text-anchor="start" data-port="LaArchitecture::power::records" data-px="470" data-py="412">^records : RecordFlow</text><rect class="pt" x="145" y="20" width="10" height="10" tabindex="0" role="button" rx="3" aria-label="port ^powerEvents" data-port="LaArchitecture::power::powerEvents" data-side="e" data-dir="out" data-px="470" data-py="425"/><path class="pd" d="M147,22 L153,25 L147,28"/><text class="ft" x="256" y="59" text-anchor="start" data-port="LaArchitecture::power::powerEvents" data-px="470" data-py="425">^powerEvents : PowerEventFlow</text><rect class="pt" x="145" y="32" width="10" height="10" tabindex="0" role="button" rx="3" aria-label="port ^supply" data-port="LaArchitecture::power::supply" data-side="e" data-dir="out" data-px="470" data-py="437"/><path class="pd" d="M147,34 L153,37 L147,40"/><text class="ft" x="195" y="95" text-anchor="start" data-port="LaArchitecture::power::supply" data-px="470" data-py="437">^supply : SupplyFlow</text></g><g class="nd" tabindex="0" role="button" aria-pressed="false" aria-label="part supervision" data-el="LaArchitecture::supervision" data-x="640" data-y="560" data-w="212" data-h="49" data-plain="1" transform="translate(640,560)"><rect class="bx" width="212" height="49" rx="10"/><rect class="hd" x="1" y="1" width="210" height="33" rx="1"/><text class="kk kw" x="106" y="11.5" text-anchor="middle">«part»</text><text class="nn bd" x="106" y="27" text-anchor="middle">supervision : Supervision</text><rect class="pt cj" x="66" y="-5" width="10" height="10" tabindex="0" role="button" rx="3" aria-label="conjugated port ^heartbeat" data-port="LaArchitecture::supervision::heartbeat" data-side="n" data-dir="in" data-px="711" data-py="560"/><path class="pd" d="M68,-3 L71,3 L74,-3"/><text class="ft" x="62" y="-10" text-anchor="end" data-port="LaArchitecture::supervision::heartbeat" data-px="711" data-py="560">^heartbeat : ~HeartbeatFlow</text><rect class="pt" x="136" y="-5" width="10" height="10" tabindex="0" role="button" rx="3" aria-label="port ^service" data-port="LaArchitecture::supervision::service" data-side="n" data-dir="out" data-px="781" data-py="560"/><path class="pd" d="M138,3 L141,-3 L144,3"/><text class="ft" x="293" y="-5" text-anchor="end" data-port="LaArchitecture::supervision::service" data-px="781" data-py="560">^service : ServiceFlow</text><rect class="pt cj" x="-5" y="20" width="10" height="10" tabindex="0" role="button" rx="3" aria-label="conjugated port ^supply" data-port="LaArchitecture::supervision::supply" data-side="w" data-dir="in" data-px="640" data-py="585"/><path class="pd" d="M-3,22 L3,25 L-3,28"/><text class="ft" x="-9" y="41" text-anchor="end" data-port="LaArchitecture::supervision::supply" data-px="640" data-py="585">^supply : ~SupplyFlow</text></g><g class="nd" tabindex="0" role="button" aria-pressed="false" aria-label="part fridge" data-el="LaArchitecture::fridge" data-x="20" data-y="60" data-w="150" data-h="49" data-plain="1" transform="translate(20,60)"><rect class="bx" width="150" height="49" rx="10"/><rect class="hd" x="1" y="1" width="148" height="33" rx="1"/><text class="kk kw" x="75" y="11.5" text-anchor="middle">«part»</text><text class="nn bd" x="75" y="27" text-anchor="middle">fridge : Fridge</text><rect class="pt" x="145" y="20" width="10" height="10" tabindex="0" role="button" rx="3" aria-label="port ^air" data-port="LaArchitecture::fridge::air" data-side="e" data-dir="out" data-px="170" data-py="85"/><path class="pd" d="M147,22 L153,25 L147,28"/><text class="ft" x="155" y="20" text-anchor="start" data-port="LaArchitecture::fridge::air" data-px="170" data-py="85">^air : ThermalPort</text></g><g class="nd" tabindex="0" role="button" aria-pressed="false" aria-label="part mains" data-el="LaArchitecture::mains" data-x="20" data-y="400" data-w="168" data-h="49" data-plain="1" transform="translate(20,400)"><rect class="bx" width="168" height="49" rx="10"/><rect class="hd" x="1" y="1" width="166" height="33" rx="1"/><text class="kk kw" x="84" y="11.5" text-anchor="middle">«part»</text><text class="nn bd" x="84" y="27" text-anchor="middle">mains : MainsSupply</text><rect class="pt" x="163" y="20" width="10" height="10" tabindex="0" role="button" rx="3" aria-label="port ^output" data-port="LaArchitecture::mains::output" data-side="e" data-dir="out" data-px="188" data-py="425"/><path class="pd" d="M165,22 L171,25 L165,28"/><text class="ft" x="170.5" y="43" text-anchor="start" data-port="LaArchitecture::mains::output" data-px="188" data-py="425">^output : PowerPort</text></g><g class="nd" tabindex="0" role="button" aria-pressed="false" aria-label="part staff" data-el="LaArchitecture::staff" data-x="1280" data-y="140" data-w="168" data-h="49" data-plain="1" transform="translate(1280,140)"><rect class="bx" width="168" height="49" rx="10"/><rect class="hd" x="1" y="1" width="166" height="33" rx="1"/><text class="kk kw" x="84" y="11.5" text-anchor="middle">«part»</text><text class="nn bd" x="84" y="27" text-anchor="middle">staff : ClinicStaff</text><rect class="pt cj" x="-5" y="11" width="10" height="10" tabindex="0" role="button" rx="3" aria-label="conjugated port ^alarmSignals" data-port="LaArchitecture::staff::alarmSignals" data-side="w" data-dir="inout" data-px="1280" data-py="156"/><path class="pd" d="M3,13 L-3,16 L3,19"/><path class="pd" d="M-3,13 L3,16 L-3,19"/><text class="ft" x="-57.5" y="16" text-anchor="end" data-port="LaArchitecture::staff::alarmSignals" data-px="1280" data-py="156">^alarmSignals : ~AlarmHmiPort</text><rect class="pt cj" x="-5" y="28" width="10" height="10" tabindex="0" role="button" rx="3" aria-label="conjugated port ^screen" data-port="LaArchitecture::staff::screen" data-side="w" data-dir="in" data-px="1280" data-py="173"/><path class="pd" d="M-3,30 L3,33 L-3,36"/><text class="ft" x="-57" y="67" text-anchor="end" data-port="LaArchitecture::staff::screen" data-px="1280" data-py="173">^screen : ~ScreenPort</text></g><g class="nd" tabindex="0" role="button" aria-pressed="false" aria-label="part recordsComputer" data-el="LaArchitecture::recordsComputer" data-x="1280" data-y="400" data-w="268" data-h="49" data-plain="1" transform="translate(1280,400)"><rect class="bx" width="268" height="49" rx="10"/><rect class="hd" x="1" y="1" width="266" height="33" rx="1"/><text class="kk kw" x="134" y="11.5" text-anchor="middle">«part»</text><text class="nn bd" x="134" y="27" text-anchor="middle">recordsComputer : RecordsComputer</text><rect class="pt cj" x="-5" y="20" width="10" height="10" tabindex="0" role="button" rx="3" aria-label="conjugated port ^usb" data-port="LaArchitecture::recordsComputer::usb" data-side="w" data-dir="in" data-px="1280" data-py="425"/><path class="pd" d="M-3,22 L3,25 L-3,28"/><text class="ft" x="-59.5" y="59" text-anchor="end" data-port="LaArchitecture::recordsComputer::usb" data-px="1280" data-py="425">^usb : ~UsbPort</text></g><path class="ed" d="M175,85 L315,85" data-el="LaArchitecture::fridge::air" data-edge="LaArchitecture::sensing::air&gt;connect" data-from="LaArchitecture::fridge::air" data-to="LaArchitecture::sensing::air" /><path class="ed" d="M481,85 L600.5,85 Q606.5,85 606.5,91 L606.5,226 Q606.5,232 612.5,232 L635,232" data-el="LaArchitecture::sensing::samples" data-edge="LaArchitecture::alarm::samples&gt;connect" data-from="LaArchitecture::sensing::samples" data-to="LaArchitecture::alarm::samples" /><path class="ed" d="M481,85 L876,85 Q880.5,85 880.5,80.5 L880.5,80.5 Q880.5,76 885,76 L955,76" data-el="LaArchitecture::sensing::samples" data-edge="LaArchitecture::display::samples&gt;connect" data-from="LaArchitecture::sensing::samples" data-to="LaArchitecture::display::samples" /><path class="ed" d="M795,232 L880.5,232 Q886.5,232 886.5,226 L886.5,99 Q886.5,93 892.5,93 L955,93" data-el="LaArchitecture::alarm::alarmState" data-edge="LaArchitecture::display::alarmState&gt;connect" data-from="LaArchitecture::alarm::alarmState" data-to="LaArchitecture::display::alarmState" /><path class="ed" d="M795,245 L874.5,245 Q880.5,245 880.5,251 L880.5,419 Q880.5,425 886.5,425 L955,425" data-el="LaArchitecture::alarm::records" data-edge="LaArchitecture::logging::records&gt;connect" data-from="LaArchitecture::alarm::records" data-to="LaArchitecture::logging::records" /><path class="ed" d="M475,412 L874.5,412 Q880.5,412 880.5,418 L880.5,419 Q880.5,425 886.5,425 L955,425" data-el="LaArchitecture::power::records" data-edge="LaArchitecture::logging::records&gt;connect" data-from="LaArchitecture::power::records" data-to="LaArchitecture::logging::records" /><path class="ed" d="M475,425 L660,425 Q666,425 666,419 L666,299 Q666,293 660,293 L617,293 Q611,293 611,287 L611,251 Q611,245 617,245 L635,245" data-el="LaArchitecture::power::powerEvents" data-edge="LaArchitecture::alarm::powerEvents&gt;connect" data-from="LaArchitecture::power::powerEvents" data-to="LaArchitecture::alarm::powerEvents" /><path class="ed" d="M690,274 L690,426 Q690,432 696,432 L775,432 Q781,432 781,438 L781,496 Q781,502 775,502 L717,502 Q711,502 711,508 L711,555" data-el="LaArchitecture::alarm::heartbeat" data-edge="LaArchitecture::supervision::heartbeat&gt;connect" data-from="LaArchitecture::alarm::heartbeat" data-to="LaArchitecture::supervision::heartbeat" /><path class="ed" d="M781,555 L781,511 Q781,508 784,508 L784,508 Q787,508 787,505 L787,293 Q787,287 781,287 L746,287 Q740,287 740,281 L740,274" data-el="LaArchitecture::supervision::service" data-edge="LaArchitecture::alarm::service&gt;connect" data-from="LaArchitecture::supervision::service" data-to="LaArchitecture::alarm::service" /><path class="ed" d="M475,437 L504,437 Q510,437 510,443 L510,579 Q510,585 516,585 L635,585" data-el="LaArchitecture::power::supply" data-edge="LaArchitecture::supervision::supply&gt;connect" data-from="LaArchitecture::power::supply" data-to="LaArchitecture::supervision::supply" /><path class="ed" d="M475,437 L558,437 Q564,437 564,443 L564,468 Q564,474 570,474 L775,474 Q781,474 781,468 L781,432 Q781,426 775,426 L699,426 Q696,426 696,429 L696,429 Q696,432 693,432 L678,432 Q672,432 672,426 L672,293 Q672,287 666,287 L623,287 Q617,287 617,281 L617,263 Q617,257 623,257 L635,257" data-el="LaArchitecture::power::supply" data-edge="LaArchitecture::alarm::supply&gt;connect" data-from="LaArchitecture::power::supply" data-to="LaArchitecture::alarm::supply" /><path class="ed" d="M193,425 L315,425" data-el="LaArchitecture::mains::output" data-edge="LaArchitecture::power::mains&gt;connect" data-from="LaArchitecture::mains::output" data-to="LaArchitecture::power::mains" /><path class="ed" d="M1121,425 L1275,425" data-el="LaArchitecture::logging::usb" data-edge="LaArchitecture::recordsComputer::usb&gt;connect" data-from="LaArchitecture::logging::usb" data-to="LaArchitecture::recordsComputer::usb" /><path class="ed" d="M795,257 L851,257 Q857,257 857,263 L857,288 Q857,294 863,294 L1226.5,294 Q1232.5,294 1232.5,288 L1232.5,162 Q1232.5,156 1238.5,156 L1275,156" data-el="LaArchitecture::alarm::alarmSignals" data-edge="LaArchitecture::staff::alarmSignals&gt;connect" data-from="LaArchitecture::alarm::alarmSignals" data-to="LaArchitecture::staff::alarmSignals" /><path class="ed" d="M1121,85 L1232.5,85 Q1238.5,85 1238.5,91 L1238.5,167 Q1238.5,173 1244.5,173 L1275,173" data-el="LaArchitecture::display::screen" data-edge="LaArchitecture::staff::screen&gt;connect" data-from="LaArchitecture::display::screen" data-to="LaArchitecture::staff::screen" /></g></svg>