<svg class="pic cls dcl" id="pic" xmlns="http://www.w3.org/2000/svg"><defs><marker id="ar" viewBox="0 0 10 10" refX="9.5" refY="5" markerWidth="9" markerHeight="9" orient="auto-start-reverse"><path d="M0,1 L10,5 L0,9" fill="none" stroke="context-stroke" stroke-width="1.111"/></marker><marker id="tri" viewBox="0 0 12 12" refX="11" refY="6" markerWidth="10.8" markerHeight="10.8" orient="auto-start-reverse"><path d="M0,0.5 L11,6 L0,11.5 Z" fill="var(--panel)" stroke="context-stroke" stroke-width="1.111"/></marker><marker id="far" viewBox="0 0 10 10" refX="9.5" refY="5" markerWidth="9" markerHeight="9" orient="auto-start-reverse"><path d="M0,1 L10,5 L0,9 Z" fill="context-stroke" stroke="context-stroke" stroke-width="1.111" stroke-linejoin="round"/></marker><marker id="trid" viewBox="0 0 16 12" refX="15" refY="6" markerWidth="14.4" markerHeight="10.8" orient="auto-start-reverse"><path d="M4,0.5 L15,6 L4,11.5 Z" fill="var(--panel)" stroke="context-stroke" stroke-width="1.111"/><circle cx="1.8" cy="3.4" r="1.1" fill="context-stroke"/><circle cx="1.8" cy="8.6" r="1.1" fill="context-stroke"/></marker><marker id="trib" viewBox="0 0 14 12" refX="13" refY="6" markerWidth="12.6" markerHeight="10.8" orient="auto-start-reverse"><path d="M3,0.5 L13,6 L3,11.5 Z" fill="var(--panel)" stroke="context-stroke" stroke-width="1.111"/><path d="M1.3,0.8 V11.2" fill="none" stroke="context-stroke" stroke-width="1.111"/></marker><marker id="dia" viewBox="0 0 14 10" refX="13" refY="5" markerWidth="12.6" markerHeight="9" orient="auto-start-reverse"><path d="M0,5 L6,1 L13,5 L6,9 Z" fill="context-stroke" stroke="context-stroke" stroke-width="1.111"/></marker><marker id="odia" viewBox="0 0 14 10" refX="13" refY="5" markerWidth="12.6" markerHeight="9" orient="auto-start-reverse"><path d="M0,5 L6,1 L13,5 L6,9 Z" fill="var(--panel)" stroke="context-stroke" stroke-width="1.111"/></marker><marker id="por" viewBox="0 0 14 14" refX="13.5" refY="7" markerWidth="12.6" markerHeight="12.6" orient="auto-start-reverse"><path d="M8,7 L3.79,3.46 A5.5,5.5 0 1 1 3.79,10.54 Z" fill="context-stroke" stroke="context-stroke" stroke-width="1.111"/></marker></defs><g id="zoom"><rect class="fr" x="0" y="0" width="1210" height="389" rx="10"/><rect class="frt" x="0" y="0" width="472" height="18" rx="2"/><text class="frn" x="8" y="12.5">«view» pa_backup_alarm : StandardViewDefinitions::InterconnectionView</text><g class="nd" tabindex="0" role="button" aria-pressed="false" aria-label="part timer" data-el="PaBackupAlarm::timer" data-x="360" data-y="40" data-w="220" data-h="49" data-plain="1" transform="translate(360,40)"><rect class="bx" width="220" height="49" rx="10"/><rect class="hd" x="1" y="1" width="218" height="33" rx="1"/><text class="kk kw" x="110" y="11.5" text-anchor="middle">«part»</text><text class="nn bd" x="110" y="27" text-anchor="middle">timer : WatchdogAlarmTimer</text><rect class="pt cj" x="-5" y="20" width="10" height="10" tabindex="0" role="button" rx="3" aria-label="conjugated port ^kick" data-port="PaBackupAlarm::timer::kick" data-side="w" data-dir="in" data-px="360" data-py="65"/><path class="pd" d="M-3,22 L3,25 L-3,28"/><text class="ft" x="-9" y="41" text-anchor="end" data-port="PaBackupAlarm::timer::kick" data-px="360" data-py="65">^kick : ~GpioOutPort</text><rect class="pt" x="215" y="20" width="10" height="10" tabindex="0" role="button" rx="3" aria-label="port ^alarmOut" data-port="PaBackupAlarm::timer::alarmOut" data-side="e" data-dir="out" data-px="580" data-py="65"/><path class="pd" d="M217,22 L223,25 L217,28"/><text class="ft" x="238.5" y="80" text-anchor="start" data-port="PaBackupAlarm::timer::alarmOut" data-px="580" data-py="65">^alarmOut : GpioOutPort</text><rect class="pt cj" x="105" y="44" width="10" height="10" tabindex="0" role="button" rx="3" aria-label="conjugated port ^holdUp" data-port="PaBackupAlarm::timer::holdUp" data-side="s" data-dir="in" data-px="470" data-py="89"/><path class="pd" d="M107,52 L110,46 L113,52"/><text class="ft" x="101" y="65" text-anchor="end" data-port="PaBackupAlarm::timer::holdUp" data-px="470" data-py="89">^holdUp : ~PowerPort</text></g><g class="nd" tabindex="0" role="button" aria-pressed="false" aria-label="part driver" data-el="PaBackupAlarm::driver" data-x="700" data-y="40" data-w="184" data-h="49" data-plain="1" transform="translate(700,40)"><rect class="bx" width="184" height="49" rx="10"/><rect class="hd" x="1" y="1" width="182" height="33" rx="1"/><text class="kk kw" x="92" y="11.5" text-anchor="middle">«part»</text><text class="nn bd" x="92" y="27" text-anchor="middle">driver : BackupDriver</text><rect class="pt cj" x="-5" y="20" width="10" height="10" tabindex="0" role="button" rx="3" aria-label="conjugated port ^input" data-port="PaBackupAlarm::driver::input" data-side="w" data-dir="in" data-px="700" data-py="65"/><path class="pd" d="M-3,22 L3,25 L-3,28"/><path class="rule" d="M-185,123 L-115,25" stroke-dasharray="2 3" data-pinleader="PaBackupAlarm::driver::input"/><text class="ft" x="-120" y="135" text-anchor="end" data-port="PaBackupAlarm::driver::input" data-px="700" data-py="65">^input : ~GpioOutPort</text><rect class="pt" x="179" y="20" width="10" height="10" tabindex="0" role="button" rx="3" aria-label="port ^output" data-port="PaBackupAlarm::driver::output" data-side="e" data-dir="out" data-px="884" data-py="65"/><path class="pd" d="M181,22 L187,25 L181,28"/><text class="ft" x="193" y="41" text-anchor="start" data-port="PaBackupAlarm::driver::output" data-px="884" data-py="65">^output : GpioOutPort</text><rect class="pt cj" x="87" y="44" width="10" height="10" tabindex="0" role="button" rx="3" aria-label="conjugated port ^supply" data-port="PaBackupAlarm::driver::supply" data-side="s" data-dir="in" data-px="792" data-py="89"/><path class="pd" d="M89,52 L92,46 L95,52"/><text class="ft" x="231" y="70" text-anchor="end" data-port="PaBackupAlarm::driver::supply" data-px="792" data-py="89">^supply : ~PowerPort</text></g><g class="nd" tabindex="0" role="button" aria-pressed="false" aria-label="part holdUp" data-el="PaBackupAlarm::holdUp" data-x="520" data-y="320" data-w="156" data-h="49" data-plain="1" transform="translate(520,320)"><rect class="bx" width="156" height="49" rx="10"/><rect class="hd" x="1" y="1" width="154" height="33" rx="1"/><text class="kk kw" x="78" y="11.5" text-anchor="middle">«part»</text><text class="nn bd" x="78" y="27" text-anchor="middle">holdUp : Supercap</text><rect class="pt cj" x="-5" y="20" width="10" height="10" tabindex="0" role="button" rx="3" aria-label="conjugated port ^charge" data-port="PaBackupAlarm::holdUp::charge" data-side="w" data-dir="in" data-px="520" data-py="345"/><path class="pd" d="M-3,22 L3,25 L-3,28"/><text class="ft" x="-9" y="41" text-anchor="end" data-port="PaBackupAlarm::holdUp::charge" data-px="520" data-py="345">^charge : ~PowerPort</text><rect class="pt" x="73" y="-5" width="10" height="10" tabindex="0" role="button" rx="3" aria-label="port ^terminal" data-port="PaBackupAlarm::holdUp::terminal" data-side="n" data-dir="out" data-px="598" data-py="320"/><path class="pd" d="M75,3 L78,-3 L81,3"/><text class="ft" x="69" y="-10" text-anchor="end" data-port="PaBackupAlarm::holdUp::terminal" data-px="598" data-py="320">^terminal : PowerPort</text></g><g class="nd" tabindex="0" role="button" aria-pressed="false" aria-label="part mcu" data-el="PaBackupAlarm::mcu" data-x="20" data-y="40" data-w="150" data-h="49" data-plain="1" transform="translate(20,40)"><rect class="bx" width="150" height="49" rx="10"/><rect class="hd" x="1" y="1" width="148" height="33" rx="1"/><text class="kk kw" x="75" y="11.5" text-anchor="middle">«part»</text><text class="nn bd" x="75" y="27" text-anchor="middle">mcu</text><rect class="pt" x="145" y="20" width="10" height="10" tabindex="0" role="button" rx="3" aria-label="port wdtKickPin" data-port="PaBackupAlarm::mcu::wdtKickPin" data-side="e" data-dir="out" data-px="170" data-py="65"/><path class="pd" d="M147,22 L153,25 L147,28"/><text class="ft" x="155" y="20" text-anchor="start" data-port="PaBackupAlarm::mcu::wdtKickPin" data-px="170" data-py="65">wdtKickPin : GpioOutPort</text></g><g class="nd" tabindex="0" role="button" aria-pressed="false" aria-label="part buzzer" data-el="PaBackupAlarm::buzzer" data-x="1040" data-y="40" data-w="150" data-h="49" data-plain="1" transform="translate(1040,40)"><rect class="bx" width="150" height="49" rx="10"/><rect class="hd" x="1" y="1" width="148" height="33" rx="1"/><text class="kk kw" x="75" y="11.5" text-anchor="middle">«part»</text><text class="nn bd" x="75" y="27" text-anchor="middle">buzzer</text><rect class="pt cj" x="-5" y="20" width="10" height="10" tabindex="0" role="button" rx="3" aria-label="conjugated port backupDrive" data-port="PaBackupAlarm::buzzer::backupDrive" data-side="w" data-dir="in" data-px="1040" data-py="65"/><path class="pd" d="M-3,22 L3,25 L-3,28"/><path class="rule" d="M-93.5,106.5 L-93.5,25" stroke-dasharray="2 3" data-pinleader="PaBackupAlarm::buzzer::backupDrive"/><text class="ft" x="-6.5" y="118.5" text-anchor="end" data-port="PaBackupAlarm::buzzer::backupDrive" data-px="1040" data-py="65">backupDrive : ~GpioOutPort</text></g><g class="nd" tabindex="0" role="button" aria-pressed="false" aria-label="part powerPath" data-el="PaBackupAlarm::powerPath" data-x="20" data-y="320" data-w="150" data-h="49" data-plain="1" transform="translate(20,320)"><rect class="bx" width="150" height="49" rx="10"/><rect class="hd" x="1" y="1" width="148" height="33" rx="1"/><text class="kk kw" x="75" y="11.5" text-anchor="middle">«part»</text><text class="nn bd" x="75" y="27" text-anchor="middle">powerPath</text><rect class="pt" x="145" y="20" width="10" height="10" tabindex="0" role="button" rx="3" aria-label="port output" data-port="PaBackupAlarm::powerPath::output" data-side="e" data-dir="out" data-px="170" data-py="345"/><path class="pd" d="M147,22 L153,25 L147,28"/><text class="ft" x="159" y="41" text-anchor="start" data-port="PaBackupAlarm::powerPath::output" data-px="170" data-py="345">output : PowerPort</text></g><path class="ed" d="M175,65 L355,65" data-el="PaBackupAlarm::mcu::wdtKickPin" data-edge="PaBackupAlarm::timer::kick&gt;interface" data-from="PaBackupAlarm::mcu::wdtKickPin" data-to="PaBackupAlarm::timer::kick" /><text class="edl" x="251" y="106" text-anchor="middle" data-word="PaBackupAlarm::mcu::wdtKickPin|PaBackupAlarm::timer::kick&gt;interface">kickLine : SignalLine</text><path class="ed" d="M585,65 L695,65" data-el="PaBackupAlarm::timer::alarmOut" data-edge="PaBackupAlarm::driver::input&gt;interface" data-from="PaBackupAlarm::timer::alarmOut" data-to="PaBackupAlarm::driver::input" /><text class="edl" x="628.5" y="80" text-anchor="middle" data-word="PaBackupAlarm::timer::alarmOut|PaBackupAlarm::driver::input&gt;interface"><tspan x="628.5">timeoutLine</tspan><tspan x="628.5" dy="13">: SignalLine</tspan></text><path class="ed" d="M889,65 L1035,65" data-el="PaBackupAlarm::driver::output" data-edge="PaBackupAlarm::buzzer::backupDrive&gt;interface" data-from="PaBackupAlarm::driver::output" data-to="PaBackupAlarm::buzzer::backupDrive" /><text class="edl" x="995" y="106" text-anchor="middle" data-word="PaBackupAlarm::driver::output|PaBackupAlarm::buzzer::backupDrive&gt;interface"><tspan x="995">driveLine :</tspan><tspan x="995" dy="13">SignalLine</tspan></text><path class="ed" d="M175,345 L515,345" data-el="PaBackupAlarm::powerPath::output" data-edge="PaBackupAlarm::holdUp::charge&gt;interface" data-from="PaBackupAlarm::powerPath::output" data-to="PaBackupAlarm::holdUp::charge" /><text class="edl" x="419" y="340" text-anchor="middle" data-word="PaBackupAlarm::powerPath::output|PaBackupAlarm::holdUp::charge&gt;interface">chargeFeed : PowerFeed</text><path class="ed" d="M598,315 L598,160 Q598,154 592,154 L476,154 Q470,154 470,148 L470,94" data-el="PaBackupAlarm::holdUp::terminal" data-edge="PaBackupAlarm::timer::holdUp&gt;interface" data-from="PaBackupAlarm::holdUp::terminal" data-to="PaBackupAlarm::timer::holdUp" /><text class="edl" x="389" y="154" text-anchor="middle" data-word="PaBackupAlarm::holdUp::terminal|PaBackupAlarm::timer::holdUp&gt;interface">timerFeed : PowerFeed</text><path class="ed" d="M598,315 L598,136 Q598,130 604,130 L753.5,130 Q758.5,130 758.5,125 L758.5,125 Q758.5,120 763.5,120 L786,120 Q792,120 792,114 L792,94" data-el="PaBackupAlarm::holdUp::terminal" data-edge="PaBackupAlarm::driver::supply&gt;interface" data-from="PaBackupAlarm::holdUp::terminal" data-to="PaBackupAlarm::driver::supply" /><text class="edl" x="679" y="145" text-anchor="middle" data-word="PaBackupAlarm::holdUp::terminal|PaBackupAlarm::driver::supply&gt;interface">driverFeed : PowerFeed</text></g></svg>