<svg class="pic cls dcl" id="pic" xmlns="http://www.w3.org/2000/svg"><defs><marker id="ar" viewBox="0 0 10 10" refX="9.5" refY="5" markerWidth="9" markerHeight="9" orient="auto-start-reverse"><path d="M0,1 L10,5 L0,9" fill="none" stroke="context-stroke" stroke-width="1.111"/></marker><marker id="tri" viewBox="0 0 12 12" refX="11" refY="6" markerWidth="10.8" markerHeight="10.8" orient="auto-start-reverse"><path d="M0,0.5 L11,6 L0,11.5 Z" fill="var(--panel)" stroke="context-stroke" stroke-width="1.111"/></marker><marker id="far" viewBox="0 0 10 10" refX="9.5" refY="5" markerWidth="9" markerHeight="9" orient="auto-start-reverse"><path d="M0,1 L10,5 L0,9 Z" fill="context-stroke" stroke="context-stroke" stroke-width="1.111" stroke-linejoin="round"/></marker><marker id="trid" viewBox="0 0 16 12" refX="15" refY="6" markerWidth="14.4" markerHeight="10.8" orient="auto-start-reverse"><path d="M4,0.5 L15,6 L4,11.5 Z" fill="var(--panel)" stroke="context-stroke" stroke-width="1.111"/><circle cx="1.8" cy="3.4" r="1.1" fill="context-stroke"/><circle cx="1.8" cy="8.6" r="1.1" fill="context-stroke"/></marker><marker id="trib" viewBox="0 0 14 12" refX="13" refY="6" markerWidth="12.6" markerHeight="10.8" orient="auto-start-reverse"><path d="M3,0.5 L13,6 L3,11.5 Z" fill="var(--panel)" stroke="context-stroke" stroke-width="1.111"/><path d="M1.3,0.8 V11.2" fill="none" stroke="context-stroke" stroke-width="1.111"/></marker><marker id="dia" viewBox="0 0 14 10" refX="13" refY="5" markerWidth="12.6" markerHeight="9" orient="auto-start-reverse"><path d="M0,5 L6,1 L13,5 L6,9 Z" fill="context-stroke" stroke="context-stroke" stroke-width="1.111"/></marker><marker id="odia" viewBox="0 0 14 10" refX="13" refY="5" markerWidth="12.6" markerHeight="9" orient="auto-start-reverse"><path d="M0,5 L6,1 L13,5 L6,9 Z" fill="var(--panel)" stroke="context-stroke" stroke-width="1.111"/></marker><marker id="por" viewBox="0 0 14 14" refX="13.5" refY="7" markerWidth="12.6" markerHeight="12.6" orient="auto-start-reverse"><path d="M8,7 L3.79,3.46 A5.5,5.5 0 1 1 3.79,10.54 Z" fill="context-stroke" stroke="context-stroke" stroke-width="1.111"/></marker></defs><g id="zoom"><rect class="fr" x="0" y="58" width="870" height="331" rx="10"/><rect class="frt" x="0" y="58" width="551" height="18" rx="2"/><text class="frn" x="8" y="70.5">«view» L3_excursion_item_structure : StandardViewDefinitions::InterconnectionView</text><g class="nd" tabindex="0" role="button" aria-pressed="false" aria-label="part limitEvaluator" data-el="NodeExcursionItemStructure::limitEvaluator" data-x="360" data-y="100" data-w="284" data-h="49" data-plain="1" transform="translate(360,100)"><rect class="bx" width="284" height="49" rx="10"/><rect class="hd" x="1" y="1" width="282" height="33" rx="1"/><text class="kk kw" x="142" y="11.5" text-anchor="middle">«part»</text><text class="nn bd" x="142" y="27" text-anchor="middle">limitEvaluator : LimitEvaluatorUnit</text><rect class="pt cj" x="137" y="44" width="10" height="10" tabindex="0" role="button" rx="3" aria-label="conjugated port ^band" data-port="NodeExcursionItemStructure::limitEvaluator::band" data-side="s" data-dir="in" data-px="502" data-py="149"/><path class="pd" d="M139,52 L142,46 L145,52"/><text class="ft" x="133" y="65" text-anchor="end" data-port="NodeExcursionItemStructure::limitEvaluator::band" data-px="502" data-py="149">^band : ~BandFlow</text><rect class="pt cj" x="-5" y="20" width="10" height="10" tabindex="0" role="button" rx="3" aria-label="conjugated port ^samples" data-port="NodeExcursionItemStructure::limitEvaluator::samples" data-side="w" data-dir="in" data-px="360" data-py="125"/><path class="pd" d="M-3,22 L3,25 L-3,28"/><text class="ft" x="-9" y="41" text-anchor="end" data-port="NodeExcursionItemStructure::limitEvaluator::samples" data-px="360" data-py="125">^samples : ~SampleOut</text><rect class="pt" x="279" y="20" width="10" height="10" tabindex="0" role="button" rx="3" aria-label="port ^excursion" data-port="NodeExcursionItemStructure::limitEvaluator::excursion" data-side="e" data-dir="out" data-px="644" data-py="125"/><path class="pd" d="M281,22 L287,25 L281,28"/><text class="ft" x="296" y="80" text-anchor="start" data-port="NodeExcursionItemStructure::limitEvaluator::excursion" data-px="644" data-py="125">^excursion : ExcursionOut</text></g><g class="nd" tabindex="0" role="button" aria-pressed="false" aria-label="part sensorItem" data-el="NodeExcursionItemStructure::sensorItem" data-x="20" data-y="100" data-w="150" data-h="49" data-plain="1" transform="translate(20,100)"><rect class="bx" width="150" height="49" rx="10"/><rect class="hd" x="1" y="1" width="148" height="33" rx="1"/><text class="kk kw" x="75" y="11.5" text-anchor="middle">«part»</text><text class="nn bd" x="75" y="27" text-anchor="middle">sensorItem</text><rect class="pt" x="145" y="20" width="10" height="10" tabindex="0" role="button" rx="3" aria-label="port samples" data-port="NodeExcursionItemStructure::sensorItem::samples" data-side="e" data-dir="out" data-px="170" data-py="125"/><path class="pd" d="M147,22 L153,25 L147,28"/><text class="ft" x="155" y="20" text-anchor="start" data-port="NodeExcursionItemStructure::sensorItem::samples" data-px="170" data-py="125">samples : SampleFlow</text></g><g class="nd" tabindex="0" role="button" aria-pressed="false" aria-label="part alarmItem" data-el="NodeExcursionItemStructure::alarmItem" data-x="700" data-y="100" data-w="150" data-h="49" data-plain="1" transform="translate(700,100)"><rect class="bx" width="150" height="49" rx="10"/><rect class="hd" x="1" y="1" width="148" height="33" rx="1"/><text class="kk kw" x="75" y="11.5" text-anchor="middle">«part»</text><text class="nn bd" x="75" y="27" text-anchor="middle">alarmItem</text><rect class="pt cj" x="-5" y="20" width="10" height="10" tabindex="0" role="button" rx="3" aria-label="conjugated port excursion" data-port="NodeExcursionItemStructure::alarmItem::excursion" data-side="w" data-dir="in" data-px="700" data-py="125"/><path class="pd" d="M-3,22 L3,25 L-3,28"/><path class="rule" d="M-125,90 L-51,25" stroke-dasharray="2 3" data-pinleader="NodeExcursionItemStructure::alarmItem::excursion"/><text class="ft" x="-46.5" y="102" text-anchor="end" data-port="NodeExcursionItemStructure::alarmItem::excursion" data-px="700" data-py="125">excursion : ~ExcursionFlow</text></g><g class="nd" tabindex="0" role="button" aria-pressed="false" aria-label="part supervisorItem" data-el="NodeExcursionItemStructure::supervisorItem" data-x="360" data-y="320" data-w="150" data-h="49" data-plain="1" transform="translate(360,320)"><rect class="bx" width="150" height="49" rx="10"/><rect class="hd" x="1" y="1" width="148" height="33" rx="1"/><text class="kk kw" x="75" y="11.5" text-anchor="middle">«part»</text><text class="nn bd" x="75" y="27" text-anchor="middle">supervisorItem</text><rect class="pt" x="70" y="-5" width="10" height="10" tabindex="0" role="button" rx="3" aria-label="port band" data-port="NodeExcursionItemStructure::supervisorItem::band" data-side="n" data-dir="out" data-px="435" data-py="320"/><path class="pd" d="M72,3 L75,-3 L78,3"/><text class="ft" x="66" y="-10" text-anchor="end" data-port="NodeExcursionItemStructure::supervisorItem::band" data-px="435" data-py="320">band : BandFlow</text></g><path class="ed" d="M175,125 L355,125" data-el="NodeExcursionItemStructure::sensorItem::samples" data-edge="NodeExcursionItemStructure::limitEvaluator::samples&gt;connect" data-from="NodeExcursionItemStructure::sensorItem::samples" data-to="NodeExcursionItemStructure::limitEvaluator::samples" /><path class="ed" d="M649,125 L695,125" data-el="NodeExcursionItemStructure::limitEvaluator::excursion" data-edge="NodeExcursionItemStructure::alarmItem::excursion&gt;connect" data-from="NodeExcursionItemStructure::limitEvaluator::excursion" data-to="NodeExcursionItemStructure::alarmItem::excursion" /><path class="ed" d="M435,315 L435,203.5 Q435,199 430.5,199 L430.5,199 Q425.5,199 425.5,194.5 L425.5,177 Q425.5,171 431.5,171 L496,171 Q502,171 502,165 L502,154" data-el="NodeExcursionItemStructure::supervisorItem::band" data-edge="NodeExcursionItemStructure::limitEvaluator::band&gt;connect" data-from="NodeExcursionItemStructure::supervisorItem::band" data-to="NodeExcursionItemStructure::limitEvaluator::band" /></g></svg>