<svg class="pic cls dcl" id="pic" xmlns="http://www.w3.org/2000/svg"><defs><marker id="ar" viewBox="0 0 10 10" refX="9.5" refY="5" markerWidth="9" markerHeight="9" orient="auto-start-reverse"><path d="M0,1 L10,5 L0,9" fill="none" stroke="context-stroke" stroke-width="1.111"/></marker><marker id="tri" viewBox="0 0 12 12" refX="11" refY="6" markerWidth="10.8" markerHeight="10.8" orient="auto-start-reverse"><path d="M0,0.5 L11,6 L0,11.5 Z" fill="var(--panel)" stroke="context-stroke" stroke-width="1.111"/></marker><marker id="far" viewBox="0 0 10 10" refX="9.5" refY="5" markerWidth="9" markerHeight="9" orient="auto-start-reverse"><path d="M0,1 L10,5 L0,9 Z" fill="context-stroke" stroke="context-stroke" stroke-width="1.111" stroke-linejoin="round"/></marker><marker id="trid" viewBox="0 0 16 12" refX="15" refY="6" markerWidth="14.4" markerHeight="10.8" orient="auto-start-reverse"><path d="M4,0.5 L15,6 L4,11.5 Z" fill="var(--panel)" stroke="context-stroke" stroke-width="1.111"/><circle cx="1.8" cy="3.4" r="1.1" fill="context-stroke"/><circle cx="1.8" cy="8.6" r="1.1" fill="context-stroke"/></marker><marker id="trib" viewBox="0 0 14 12" refX="13" refY="6" markerWidth="12.6" markerHeight="10.8" orient="auto-start-reverse"><path d="M3,0.5 L13,6 L3,11.5 Z" fill="var(--panel)" stroke="context-stroke" stroke-width="1.111"/><path d="M1.3,0.8 V11.2" fill="none" stroke="context-stroke" stroke-width="1.111"/></marker><marker id="dia" viewBox="0 0 14 10" refX="13" refY="5" markerWidth="12.6" markerHeight="9" orient="auto-start-reverse"><path d="M0,5 L6,1 L13,5 L6,9 Z" fill="context-stroke" stroke="context-stroke" stroke-width="1.111"/></marker><marker id="odia" viewBox="0 0 14 10" refX="13" refY="5" markerWidth="12.6" markerHeight="9" orient="auto-start-reverse"><path d="M0,5 L6,1 L13,5 L6,9 Z" fill="var(--panel)" stroke="context-stroke" stroke-width="1.111"/></marker><marker id="por" viewBox="0 0 14 14" refX="13.5" refY="7" markerWidth="12.6" markerHeight="12.6" orient="auto-start-reverse"><path d="M8,7 L3.79,3.46 A5.5,5.5 0 1 1 3.79,10.54 Z" fill="context-stroke" stroke="context-stroke" stroke-width="1.111"/></marker></defs><g id="zoom"><rect class="fr" x="0" y="0" width="1210" height="489" rx="10"/><rect class="frt" x="0" y="0" width="511" height="18" rx="2"/><text class="frn" x="8" y="12.5">«view» L3_log_item_structure : StandardViewDefinitions::InterconnectionView</text><g class="nd" tabindex="0" role="button" aria-pressed="false" aria-label="part eventLog" data-el="NodeLogItemStructure::eventLog" data-x="360" data-y="180" data-w="196" data-h="49" data-plain="1" transform="translate(360,180)"><rect class="bx" width="196" height="49" rx="10"/><rect class="hd" x="1" y="1" width="194" height="33" rx="1"/><text class="kk kw" x="98" y="11.5" text-anchor="middle">«part»</text><text class="nn bd" x="98" y="27" text-anchor="middle">eventLog : EventLogUnit</text><rect class="pt" x="191" y="20" width="10" height="10" tabindex="0" role="button" rx="3" aria-label="port ^toRing" data-port="NodeLogItemStructure::eventLog::toRing" data-side="e" data-dir="out" data-px="556" data-py="205"/><path class="pd" d="M193,22 L199,25 L193,28"/><text class="ft" x="205" y="41" text-anchor="start" data-port="NodeLogItemStructure::eventLog::toRing" data-px="556" data-py="205">^toRing : RecordFlow</text><rect class="pt cj" x="93" y="44" width="10" height="10" tabindex="0" role="button" rx="3" aria-label="conjugated port ^clock" data-port="NodeLogItemStructure::eventLog::clock" data-side="s" data-dir="in" data-px="458" data-py="229"/><path class="pd" d="M95,52 L98,46 L101,52"/><text class="ft" x="89" y="65" text-anchor="end" data-port="NodeLogItemStructure::eventLog::clock" data-px="458" data-py="229">^clock : ~TimeFlow</text><rect class="pt" x="-5" y="20" width="10" height="10" tabindex="0" role="button" rx="3" aria-label="port ^records" data-port="NodeLogItemStructure::eventLog::records" data-side="w" data-dir="in" data-px="360" data-py="205"/><path class="pd" d="M-3,22 L3,25 L-3,28"/><text class="ft" x="-9" y="41" text-anchor="end" data-port="NodeLogItemStructure::eventLog::records" data-px="360" data-py="205">^records : LogIn</text></g><g class="nd" tabindex="0" role="button" aria-pressed="false" aria-label="part historyRing" data-el="NodeLogItemStructure::historyRing" data-x="700" data-y="180" data-w="240" data-h="49" data-plain="1" transform="translate(700,180)"><rect class="bx" width="240" height="49" rx="10"/><rect class="hd" x="1" y="1" width="238" height="33" rx="1"/><text class="kk kw" x="120" y="11.5" text-anchor="middle">«part»</text><text class="nn bd" x="120" y="27" text-anchor="middle">historyRing : HistoryRingUnit</text><rect class="pt cj" x="-5" y="20" width="10" height="10" tabindex="0" role="button" rx="3" aria-label="conjugated port ^append" data-port="NodeLogItemStructure::historyRing::append" data-side="w" data-dir="in" data-px="700" data-py="205"/><path class="pd" d="M-3,22 L3,25 L-3,28"/><text class="ft" x="-1.5" y="20" text-anchor="end" data-port="NodeLogItemStructure::historyRing::append" data-px="700" data-py="205">^append : ~RecordFlow</text><rect class="pt" x="235" y="20" width="10" height="10" tabindex="0" role="button" rx="3" aria-label="port ^history" data-port="NodeLogItemStructure::historyRing::history" data-side="e" data-dir="out" data-px="940" data-py="205"/><path class="pd" d="M237,22 L243,25 L237,28"/><text class="ft" x="322.5" y="75" text-anchor="start" data-port="NodeLogItemStructure::historyRing::history" data-px="940" data-py="205">^history : HistoryFlow</text></g><g class="nd" tabindex="0" role="button" aria-pressed="false" aria-label="part rtcClock" data-el="NodeLogItemStructure::rtcClock" data-x="360" data-y="420" data-w="196" data-h="49" data-plain="1" transform="translate(360,420)"><rect class="bx" width="196" height="49" rx="10"/><rect class="hd" x="1" y="1" width="194" height="33" rx="1"/><text class="kk kw" x="98" y="11.5" text-anchor="middle">«part»</text><text class="nn bd" x="98" y="27" text-anchor="middle">rtcClock : RtcClockUnit</text><rect class="pt" x="191" y="20" width="10" height="10" tabindex="0" role="button" rx="3" aria-label="port ^i2c" data-port="NodeLogItemStructure::rtcClock::i2c" data-side="e" data-dir="out" data-px="556" data-py="445"/><path class="pd" d="M193,22 L199,25 L193,28"/><text class="ft" x="205" y="41" text-anchor="start" data-port="NodeLogItemStructure::rtcClock::i2c" data-px="556" data-py="445">^i2c : I2cPort</text><rect class="pt" x="93" y="-5" width="10" height="10" tabindex="0" role="button" rx="3" aria-label="port ^now" data-port="NodeLogItemStructure::rtcClock::now" data-side="n" data-dir="out" data-px="458" data-py="420"/><path class="pd" d="M95,3 L98,-3 L101,3"/><text class="ft" x="89" y="-10" text-anchor="end" data-port="NodeLogItemStructure::rtcClock::now" data-px="458" data-py="420">^now : TimeFlow</text></g><g class="nd" tabindex="0" role="button" aria-pressed="false" aria-label="part alarmItem" data-el="NodeLogItemStructure::alarmItem" data-x="20" data-y="20" data-w="150" data-h="49" data-plain="1" transform="translate(20,20)"><rect class="bx" width="150" height="49" rx="10"/><rect class="hd" x="1" y="1" width="148" height="33" rx="1"/><text class="kk kw" x="75" y="11.5" text-anchor="middle">«part»</text><text class="nn bd" x="75" y="27" text-anchor="middle">alarmItem</text><rect class="pt" x="145" y="20" width="10" height="10" tabindex="0" role="button" rx="3" aria-label="port records" data-port="NodeLogItemStructure::alarmItem::records" data-side="e" data-dir="out" data-px="170" data-py="45"/><path class="pd" d="M147,22 L153,25 L147,28"/><text class="ft" x="159" y="41" text-anchor="start" data-port="NodeLogItemStructure::alarmItem::records" data-px="170" data-py="45">records : RecordFlow</text></g><g class="nd" tabindex="0" role="button" aria-pressed="false" aria-label="part powerItem" data-el="NodeLogItemStructure::powerItem" data-x="20" data-y="180" data-w="150" data-h="49" data-plain="1" transform="translate(20,180)"><rect class="bx" width="150" height="49" rx="10"/><rect class="hd" x="1" y="1" width="148" height="33" rx="1"/><text class="kk kw" x="75" y="11.5" text-anchor="middle">«part»</text><text class="nn bd" x="75" y="27" text-anchor="middle">powerItem</text><rect class="pt" x="145" y="20" width="10" height="10" tabindex="0" role="button" rx="3" aria-label="port records" data-port="NodeLogItemStructure::powerItem::records" data-side="e" data-dir="out" data-px="170" data-py="205"/><path class="pd" d="M147,22 L153,25 L147,28"/><text class="ft" x="155" y="20" text-anchor="start" data-port="NodeLogItemStructure::powerItem::records" data-px="170" data-py="205">records : RecordFlow</text></g><g class="nd" tabindex="0" role="button" aria-pressed="false" aria-label="part supervisorItem" data-el="NodeLogItemStructure::supervisorItem" data-x="20" data-y="340" data-w="150" data-h="49" data-plain="1" transform="translate(20,340)"><rect class="bx" width="150" height="49" rx="10"/><rect class="hd" x="1" y="1" width="148" height="33" rx="1"/><text class="kk kw" x="75" y="11.5" text-anchor="middle">«part»</text><text class="nn bd" x="75" y="27" text-anchor="middle">supervisorItem</text><rect class="pt" x="145" y="20" width="10" height="10" tabindex="0" role="button" rx="3" aria-label="port records" data-port="NodeLogItemStructure::supervisorItem::records" data-side="e" data-dir="out" data-px="170" data-py="365"/><path class="pd" d="M147,22 L153,25 L147,28"/><text class="ft" x="159" y="41" text-anchor="start" data-port="NodeLogItemStructure::supervisorItem::records" data-px="170" data-py="365">records : RecordFlow</text></g><g class="nd" tabindex="0" role="button" aria-pressed="false" aria-label="part usbItem" data-el="NodeLogItemStructure::usbItem" data-x="1040" data-y="180" data-w="150" data-h="49" data-plain="1" transform="translate(1040,180)"><rect class="bx" width="150" height="49" rx="10"/><rect class="hd" x="1" y="1" width="148" height="33" rx="1"/><text class="kk kw" x="75" y="11.5" text-anchor="middle">«part»</text><text class="nn bd" x="75" y="27" text-anchor="middle">usbItem</text><rect class="pt cj" x="-5" y="20" width="10" height="10" tabindex="0" role="button" rx="3" aria-label="conjugated port history" data-port="NodeLogItemStructure::usbItem::history" data-side="w" data-dir="in" data-px="1040" data-py="205"/><path class="pd" d="M-3,22 L3,25 L-3,28"/><text class="ft" x="-82.5" y="75" text-anchor="end" data-port="NodeLogItemStructure::usbItem::history" data-px="1040" data-py="205">history : ~HistoryFlow</text></g><g class="nd" tabindex="0" role="button" aria-pressed="false" aria-label="part hardwareItem" data-el="NodeLogItemStructure::hardwareItem" data-x="700" data-y="420" data-w="150" data-h="49" data-plain="1" transform="translate(700,420)"><rect class="bx" width="150" height="49" rx="10"/><rect class="hd" x="1" y="1" width="148" height="33" rx="1"/><text class="kk kw" x="75" y="11.5" text-anchor="middle">«part»</text><text class="nn bd" x="75" y="27" text-anchor="middle">hardwareItem</text><rect class="pt cj" x="-5" y="20" width="10" height="10" tabindex="0" role="button" rx="3" aria-label="conjugated port clockBus" data-port="NodeLogItemStructure::hardwareItem::clockBus" data-side="w" data-dir="in" data-px="700" data-py="445"/><path class="pd" d="M-3,22 L3,25 L-3,28"/><text class="ft" x="-5" y="20" text-anchor="end" data-port="NodeLogItemStructure::hardwareItem::clockBus" data-px="700" data-py="445">clockBus : ~I2cPort</text></g><path class="ed" d="M175,45 L330,45 Q336,45 336,51 L336,199 Q336,205 342,205 L355,205" data-el="NodeLogItemStructure::alarmItem::records" data-edge="NodeLogItemStructure::eventLog::records&gt;connect" data-from="NodeLogItemStructure::alarmItem::records" data-to="NodeLogItemStructure::eventLog::records" /><path class="ed" d="M175,205 L355,205" data-el="NodeLogItemStructure::powerItem::records" data-edge="NodeLogItemStructure::eventLog::records&gt;connect" data-from="NodeLogItemStructure::powerItem::records" data-to="NodeLogItemStructure::eventLog::records" /><path class="ed" d="M175,365 L228,365 Q234,365 234,359 L234,211 Q234,205 240,205 L355,205" data-el="NodeLogItemStructure::supervisorItem::records" data-edge="NodeLogItemStructure::eventLog::records&gt;connect" data-from="NodeLogItemStructure::supervisorItem::records" data-to="NodeLogItemStructure::eventLog::records" /><path class="ed" d="M561,205 L695,205" data-el="NodeLogItemStructure::eventLog::toRing" data-edge="NodeLogItemStructure::historyRing::append&gt;connect" data-from="NodeLogItemStructure::eventLog::toRing" data-to="NodeLogItemStructure::historyRing::append" /><path class="ed" d="M458,415 L458,234" data-el="NodeLogItemStructure::rtcClock::now" data-edge="NodeLogItemStructure::eventLog::clock&gt;connect" data-from="NodeLogItemStructure::rtcClock::now" data-to="NodeLogItemStructure::eventLog::clock" /><path class="ed" d="M561,445 L695,445" data-el="NodeLogItemStructure::rtcClock::i2c" data-edge="NodeLogItemStructure::hardwareItem::clockBus&gt;connect" data-from="NodeLogItemStructure::rtcClock::i2c" data-to="NodeLogItemStructure::hardwareItem::clockBus" /><path class="ed" d="M945,205 L1035,205" data-el="NodeLogItemStructure::historyRing::history" data-edge="NodeLogItemStructure::usbItem::history&gt;connect" data-from="NodeLogItemStructure::historyRing::history" data-to="NodeLogItemStructure::usbItem::history" /></g></svg>