<svg class="pic cls dcl" id="pic" xmlns="http://www.w3.org/2000/svg"><defs><marker id="ar" viewBox="0 0 10 10" refX="9.5" refY="5" markerWidth="9" markerHeight="9" orient="auto-start-reverse"><path d="M0,1 L10,5 L0,9" fill="none" stroke="context-stroke" stroke-width="1.111"/></marker><marker id="tri" viewBox="0 0 12 12" refX="11" refY="6" markerWidth="10.8" markerHeight="10.8" orient="auto-start-reverse"><path d="M0,0.5 L11,6 L0,11.5 Z" fill="var(--panel)" stroke="context-stroke" stroke-width="1.111"/></marker><marker id="far" viewBox="0 0 10 10" refX="9.5" refY="5" markerWidth="9" markerHeight="9" orient="auto-start-reverse"><path d="M0,1 L10,5 L0,9 Z" fill="context-stroke" stroke="context-stroke" stroke-width="1.111" stroke-linejoin="round"/></marker><marker id="trid" viewBox="0 0 16 12" refX="15" refY="6" markerWidth="14.4" markerHeight="10.8" orient="auto-start-reverse"><path d="M4,0.5 L15,6 L4,11.5 Z" fill="var(--panel)" stroke="context-stroke" stroke-width="1.111"/><circle cx="1.8" cy="3.4" r="1.1" fill="context-stroke"/><circle cx="1.8" cy="8.6" r="1.1" fill="context-stroke"/></marker><marker id="trib" viewBox="0 0 14 12" refX="13" refY="6" markerWidth="12.6" markerHeight="10.8" orient="auto-start-reverse"><path d="M3,0.5 L13,6 L3,11.5 Z" fill="var(--panel)" stroke="context-stroke" stroke-width="1.111"/><path d="M1.3,0.8 V11.2" fill="none" stroke="context-stroke" stroke-width="1.111"/></marker><marker id="dia" viewBox="0 0 14 10" refX="13" refY="5" markerWidth="12.6" markerHeight="9" orient="auto-start-reverse"><path d="M0,5 L6,1 L13,5 L6,9 Z" fill="context-stroke" stroke="context-stroke" stroke-width="1.111"/></marker><marker id="odia" viewBox="0 0 14 10" refX="13" refY="5" markerWidth="12.6" markerHeight="9" orient="auto-start-reverse"><path d="M0,5 L6,1 L13,5 L6,9 Z" fill="var(--panel)" stroke="context-stroke" stroke-width="1.111"/></marker><marker id="por" viewBox="0 0 14 14" refX="13.5" refY="7" markerWidth="12.6" markerHeight="12.6" orient="auto-start-reverse"><path d="M8,7 L3.79,3.46 A5.5,5.5 0 1 1 3.79,10.54 Z" fill="context-stroke" stroke="context-stroke" stroke-width="1.111"/></marker></defs><g id="zoom"><rect class="fr" x="0" y="18" width="996" height="372" rx="10"/><rect class="frt" x="0" y="18" width="478" height="18" rx="2"/><text class="frn" x="8" y="30.5">«view» aircraft_context : StandardViewDefinitions::InterconnectionView</text><g class="nd" tabindex="0" role="button" aria-pressed="false" aria-label="part fridge" data-el="AircraftContext::fridge" data-x="20" data-y="60" data-w="150" data-h="49" data-plain="1" transform="translate(20,60)"><rect class="bx" width="150" height="49" rx="10"/><rect class="hd" x="1" y="1" width="148" height="33" rx="1"/><text class="kk kw" x="75" y="11.5" text-anchor="middle">«part»</text><text class="nn bd" x="75" y="27" text-anchor="middle">fridge : Fridge</text><rect class="pt" x="145" y="20" width="10" height="10" tabindex="0" role="button" rx="3" aria-label="port ^air" data-port="AircraftContext::fridge::air" data-side="e" data-dir="out" data-px="170" data-py="85"/><path class="pd" d="M147,22 L153,25 L147,28"/><text class="ft" x="159" y="41" text-anchor="start" data-port="AircraftContext::fridge::air" data-px="170" data-py="85">^air : ThermalPort</text></g><g class="nd" tabindex="0" role="button" aria-pressed="false" aria-label="part monitor" data-el="AircraftContext::monitor" data-x="400" data-y="180" data-w="196" data-h="49" data-plain="1" transform="translate(400,180)"><rect class="bx" width="196" height="49" rx="10"/><rect class="hd" x="1" y="1" width="194" height="33" rx="1"/><text class="kk kw" x="98" y="11.5" text-anchor="middle">«part»</text><text class="nn bd" x="98" y="27" text-anchor="middle">monitor : MonitorDevice</text><rect class="pt cj" x="-5" y="11" width="10" height="10" tabindex="0" role="button" rx="3" aria-label="conjugated port ^air" data-port="AircraftContext::monitor::air" data-side="w" data-dir="in" data-px="400" data-py="196"/><path class="pd" d="M-3,13 L3,16 L-3,19"/><text class="ft" x="-73" y="27" text-anchor="end" data-port="AircraftContext::monitor::air" data-px="400" data-py="196">^air : ~ThermalPort</text><rect class="pt cj" x="-5" y="28" width="10" height="10" tabindex="0" role="button" rx="3" aria-label="conjugated port ^mains" data-port="AircraftContext::monitor::mains" data-side="w" data-dir="in" data-px="400" data-py="213"/><path class="pd" d="M-3,30 L3,33 L-3,36"/><text class="ft" x="-9" y="49" text-anchor="end" data-port="AircraftContext::monitor::mains" data-px="400" data-py="213">^mains : ~PowerPort</text><rect class="pt" x="191" y="7" width="10" height="10" tabindex="0" role="button" rx="3" aria-label="port ^usb" data-port="AircraftContext::monitor::usb" data-side="e" data-dir="out" data-px="596" data-py="192"/><path class="pd" d="M193,9 L199,12 L193,15"/><text class="ft" x="201" y="7" text-anchor="start" data-port="AircraftContext::monitor::usb" data-px="596" data-py="192">^usb : UsbPort</text><rect class="pt" x="191" y="20" width="10" height="10" tabindex="0" role="button" rx="3" aria-label="port ^alarmSignals" data-port="AircraftContext::monitor::alarmSignals" data-side="e" data-dir="inout" data-px="596" data-py="205"/><path class="pd" d="M193,22 L199,25 L193,28"/><path class="pd" d="M199,22 L193,25 L199,28"/><path class="rule" d="M392,39 L392,136" stroke-dasharray="2 3" data-pinleader="AircraftContext::monitor::alarmSignals"/><text class="ft" x="298.5" y="36" text-anchor="start" data-port="AircraftContext::monitor::alarmSignals" data-px="596" data-py="205">^alarmSignals : AlarmHmiPort</text><rect class="pt" x="191" y="32" width="10" height="10" tabindex="0" role="button" rx="3" aria-label="port ^screen" data-port="AircraftContext::monitor::screen" data-side="e" data-dir="out" data-px="596" data-py="217"/><path class="pd" d="M193,34 L199,37 L193,40"/><text class="ft" x="259" y="153" text-anchor="start" data-port="AircraftContext::monitor::screen" data-px="596" data-py="217">^screen : ScreenPort</text></g><g class="nd" tabindex="0" role="button" aria-pressed="false" aria-label="part mains" data-el="AircraftContext::mains" data-x="20" data-y="300" data-w="168" data-h="49" data-plain="1" transform="translate(20,300)"><rect class="bx" width="168" height="49" rx="10"/><rect class="hd" x="1" y="1" width="166" height="33" rx="1"/><text class="kk kw" x="84" y="11.5" text-anchor="middle">«part»</text><text class="nn bd" x="84" y="27" text-anchor="middle">mains : MainsSupply</text><rect class="pt" x="163" y="20" width="10" height="10" tabindex="0" role="button" rx="3" aria-label="port ^output" data-port="AircraftContext::mains::output" data-side="e" data-dir="out" data-px="188" data-py="325"/><path class="pd" d="M165,22 L171,25 L165,28"/><text class="ft" x="177" y="41" text-anchor="start" data-port="AircraftContext::mains::output" data-px="188" data-py="325">^output : PowerPort</text></g><g class="nd" tabindex="0" role="button" aria-pressed="false" aria-label="part usbHost" data-el="AircraftContext::usbHost" data-x="820" data-y="60" data-w="156" data-h="49" data-plain="1" transform="translate(820,60)"><rect class="bx" width="156" height="49" rx="10"/><rect class="hd" x="1" y="1" width="154" height="33" rx="1"/><text class="kk kw" x="78" y="11.5" text-anchor="middle">«part»</text><text class="nn bd" x="78" y="27" text-anchor="middle">usbHost : UsbHost</text><rect class="pt cj" x="-5" y="20" width="10" height="10" tabindex="0" role="button" rx="3" aria-label="conjugated port ^usb" data-port="AircraftContext::usbHost::usb" data-side="w" data-dir="in" data-px="820" data-py="85"/><path class="pd" d="M-3,22 L3,25 L-3,28"/><text class="ft" x="-9" y="41" text-anchor="end" data-port="AircraftContext::usbHost::usb" data-px="820" data-py="85">^usb : ~UsbPort</text></g><g class="nd" tabindex="0" role="button" aria-pressed="false" aria-label="part staff" data-el="AircraftContext::staff" data-x="820" data-y="300" data-w="150" data-h="49" data-plain="1" transform="translate(820,300)"><rect class="bx" width="150" height="49" rx="10"/><rect class="hd" x="1" y="1" width="148" height="33" rx="1"/><text class="kk kw" x="75" y="11.5" text-anchor="middle">«part»</text><text class="nn bd" x="75" y="27" text-anchor="middle">staff : Staff</text><rect class="pt cj" x="-5" y="11" width="10" height="10" tabindex="0" role="button" rx="3" aria-label="conjugated port ^alarmSignals" data-port="AircraftContext::staff::alarmSignals" data-side="w" data-dir="inout" data-px="820" data-py="316"/><path class="pd" d="M3,13 L-3,16 L3,19"/><path class="pd" d="M-3,13 L3,16 L-3,19"/><text class="ft" x="-106" y="66" text-anchor="end" data-port="AircraftContext::staff::alarmSignals" data-px="820" data-py="316">^alarmSignals : ~AlarmHmiPort</text><rect class="pt cj" x="-5" y="28" width="10" height="10" tabindex="0" role="button" rx="3" aria-label="conjugated port ^screen" data-port="AircraftContext::staff::screen" data-side="w" data-dir="in" data-px="820" data-py="333"/><path class="pd" d="M-3,30 L3,33 L-3,36"/><text class="ft" x="-171" y="33" text-anchor="end" data-port="AircraftContext::staff::screen" data-px="820" data-py="333">^screen : ~ScreenPort</text></g><path class="ed" d="M175,85 L333,85 Q339,85 339,91 L339,190 Q339,196 345,196 L395,196" data-el="AircraftContext::fridge::air" data-edge="AircraftContext::monitor::air&gt;interface" data-from="AircraftContext::fridge::air" data-to="AircraftContext::monitor::air" /><text class="edl" x="442" y="98" text-anchor="middle" data-word="AircraftContext::fridge::air|AircraftContext::monitor::air&gt;interface">airContact : ThermalContact</text><path class="ed" d="M193,325 L339,325 Q345,325 345,319 L345,219 Q345,213 351,213 L395,213" data-el="AircraftContext::mains::output" data-edge="AircraftContext::monitor::mains&gt;interface" data-from="AircraftContext::mains::output" data-to="AircraftContext::monitor::mains" /><text class="edl" x="426" y="325" text-anchor="middle" data-word="AircraftContext::mains::output|AircraftContext::monitor::mains&gt;interface">mainsFeed : PowerFeed</text><path class="ed" d="M601,192 L747,192 Q753,192 753,186 L753,91 Q753,85 759,85 L815,85" data-el="AircraftContext::monitor::usb" data-edge="AircraftContext::usbHost::usb&gt;interface" data-from="AircraftContext::monitor::usb" data-to="AircraftContext::usbHost::usb" /><text class="edl" x="834" y="192" text-anchor="middle" data-word="AircraftContext::monitor::usb|AircraftContext::usbHost::usb&gt;interface">historyLink : UsbLink</text><path class="ed" d="M601,205 L654,205 Q660,205 660,211 L660,310 Q660,316 666,316 L815,316" data-el="AircraftContext::monitor::alarmSignals" data-edge="AircraftContext::staff::alarmSignals&gt;connect" data-from="AircraftContext::monitor::alarmSignals" data-to="AircraftContext::staff::alarmSignals" /><path class="ed" d="M601,217 L648,217 Q654,217 654,223 L654,327 Q654,333 660,333 L815,333" data-el="AircraftContext::monitor::screen" data-edge="AircraftContext::staff::screen&gt;connect" data-from="AircraftContext::monitor::screen" data-to="AircraftContext::staff::screen" /></g></svg>