<svg class="pic cls dcl" id="pic" xmlns="http://www.w3.org/2000/svg"><defs><marker id="ar" viewBox="0 0 10 10" refX="9.5" refY="5" markerWidth="9" markerHeight="9" orient="auto-start-reverse"><path d="M0,1 L10,5 L0,9" fill="none" stroke="context-stroke" stroke-width="1.111"/></marker><marker id="tri" viewBox="0 0 12 12" refX="11" refY="6" markerWidth="10.8" markerHeight="10.8" orient="auto-start-reverse"><path d="M0,0.5 L11,6 L0,11.5 Z" fill="var(--panel)" stroke="context-stroke" stroke-width="1.111"/></marker><marker id="far" viewBox="0 0 10 10" refX="9.5" refY="5" markerWidth="9" markerHeight="9" orient="auto-start-reverse"><path d="M0,1 L10,5 L0,9 Z" fill="context-stroke" stroke="context-stroke" stroke-width="1.111" stroke-linejoin="round"/></marker><marker id="trid" viewBox="0 0 16 12" refX="15" refY="6" markerWidth="14.4" markerHeight="10.8" orient="auto-start-reverse"><path d="M4,0.5 L15,6 L4,11.5 Z" fill="var(--panel)" stroke="context-stroke" stroke-width="1.111"/><circle cx="1.8" cy="3.4" r="1.1" fill="context-stroke"/><circle cx="1.8" cy="8.6" r="1.1" fill="context-stroke"/></marker><marker id="trib" viewBox="0 0 14 12" refX="13" refY="6" markerWidth="12.6" markerHeight="10.8" orient="auto-start-reverse"><path d="M3,0.5 L13,6 L3,11.5 Z" fill="var(--panel)" stroke="context-stroke" stroke-width="1.111"/><path d="M1.3,0.8 V11.2" fill="none" stroke="context-stroke" stroke-width="1.111"/></marker><marker id="dia" viewBox="0 0 14 10" refX="13" refY="5" markerWidth="12.6" markerHeight="9" orient="auto-start-reverse"><path d="M0,5 L6,1 L13,5 L6,9 Z" fill="context-stroke" stroke="context-stroke" stroke-width="1.111"/></marker><marker id="odia" viewBox="0 0 14 10" refX="13" refY="5" markerWidth="12.6" markerHeight="9" orient="auto-start-reverse"><path d="M0,5 L6,1 L13,5 L6,9 Z" fill="var(--panel)" stroke="context-stroke" stroke-width="1.111"/></marker><marker id="por" viewBox="0 0 14 14" refX="13.5" refY="7" markerWidth="12.6" markerHeight="12.6" orient="auto-start-reverse"><path d="M8,7 L3.79,3.46 A5.5,5.5 0 1 1 3.79,10.54 Z" fill="context-stroke" stroke="context-stroke" stroke-width="1.111"/></marker></defs><g id="zoom"><rect class="fr" x="0" y="0" width="1396" height="383" rx="10"/><rect class="frt" x="0" y="0" width="459" height="18" rx="2"/><text class="frn" x="8" y="12.5">«view» aircraft_functions : StandardViewDefinitions::ActionFlowView</text><g class="nd" tabindex="0" role="button" aria-pressed="false" aria-label="action def ProductFunctions" data-el="AircraftFunctions::ProductFunctions" data-x="204" data-y="44" data-w="1172" data-h="319" transform="translate(204,44)"><rect class="bx" width="1172" height="319" rx="2"/><text class="kk kw" x="586" y="11.5" text-anchor="middle">«action def»</text><text class="nn bd" x="586" y="27" text-anchor="middle">ProductFunctions</text><g class="nd in" data-el="AircraftFunctions::ProductFunctions::monitorAir" data-inner="1" aria-pressed="false" aria-label="action monitorAir" data-x="220" data-y="168" data-w="152" data-h="103" transform="translate(16,124)"><rect class="bx" width="152" height="103" rx="10"/><text class="kk kw" x="76" y="11.5" text-anchor="middle">«action»</text><text class="nn bd" x="76" y="27" text-anchor="middle">monitorAir</text><path class="rule" d="M0,35 H152"/><text class="kk cl" x="76" y="45" text-anchor="middle">doc</text><text class="ft" x="7" y="59">MRTM-FUN-001</text><rect class="pt" x="147" y="47" width="10" height="10" tabindex="0" role="button" rx="3" aria-label="out parameter sample" data-port="AircraftFunctions::ProductFunctions::monitorAir::sample" data-side="e" data-dir="out" data-px="372" data-py="220"/><path class="pd" d="M149,49 L155,52 L149,55"/></g><g class="nd in" data-el="AircraftFunctions::ProductFunctions::warnExcursion" data-inner="1" aria-pressed="false" aria-label="action warnExcursion" data-x="572" data-y="168" data-w="152" data-h="103" transform="translate(368,124)"><rect class="bx" width="152" height="103" rx="10"/><text class="kk kw" x="76" y="11.5" text-anchor="middle">«action»</text><text class="nn bd" x="76" y="27" text-anchor="middle">warnExcursion</text><path class="rule" d="M0,35 H152"/><text class="kk cl" x="76" y="45" text-anchor="middle">doc</text><text class="ft" x="7" y="59">MRTM-FUN-002</text><rect class="pt" x="-5" y="47" width="10" height="10" tabindex="0" role="button" rx="3" aria-label="in parameter sample" data-port="AircraftFunctions::ProductFunctions::warnExcursion::sample" data-side="w" data-dir="in" data-px="572" data-py="220"/><path class="pd" d="M-3,49 L3,52 L-3,55"/><rect class="pt" x="147" y="47" width="10" height="10" tabindex="0" role="button" rx="3" aria-label="out parameter excursion" data-port="AircraftFunctions::ProductFunctions::warnExcursion::excursion" data-side="e" data-dir="out" data-px="724" data-py="220"/><path class="pd" d="M149,49 L155,52 L149,55"/></g><g class="nd in" data-el="AircraftFunctions::ProductFunctions::acknowledgeWarning" data-inner="1" aria-pressed="false" aria-label="action acknowledgeWarning" data-x="920" data-y="96" data-w="160" data-h="103" transform="translate(716,52)"><rect class="bx" width="160" height="103" rx="10"/><text class="kk kw" x="80" y="11.5" text-anchor="middle">«action»</text><text class="nn bd" x="80" y="27" text-anchor="middle">acknowledgeWarning</text><path class="rule" d="M0,35 H160"/><text class="kk cl" x="80" y="45" text-anchor="middle">doc</text><text class="ft" x="7" y="59">MRTM-FUN-003</text><rect class="pt" x="-5" y="47" width="10" height="10" tabindex="0" role="button" rx="3" aria-label="in parameter excursion" data-port="AircraftFunctions::ProductFunctions::acknowledgeWarning::excursion" data-side="w" data-dir="in" data-px="920" data-py="148"/><path class="pd" d="M-3,49 L3,52 L-3,55"/></g><g class="nd in" data-el="AircraftFunctions::ProductFunctions::keepHistory" data-inner="1" aria-pressed="false" aria-label="action keepHistory" data-x="920" data-y="244" data-w="152" data-h="103" transform="translate(716,200)"><rect class="bx" width="152" height="103" rx="10"/><text class="kk kw" x="76" y="11.5" text-anchor="middle">«action»</text><text class="nn bd" x="76" y="27" text-anchor="middle">keepHistory</text><path class="rule" d="M0,35 H152"/><text class="kk cl" x="76" y="45" text-anchor="middle">doc</text><text class="ft" x="7" y="59">MRTM-FUN-004</text><rect class="pt" x="-5" y="47" width="10" height="10" tabindex="0" role="button" rx="3" aria-label="in parameter excursion" data-port="AircraftFunctions::ProductFunctions::keepHistory::excursion" data-side="w" data-dir="in" data-px="920" data-py="296"/><path class="pd" d="M-3,49 L3,52 L-3,55"/></g><g class="nd in" data-el="AircraftFunctions::ProductFunctions::watchThroughPowerCut" data-inner="1" aria-pressed="false" aria-label="action watchThroughPowerCut" data-x="1184" data-y="96" data-w="176" data-h="103" transform="translate(980,52)"><rect class="bx" width="176" height="103" rx="10"/><text class="kk kw" x="88" y="11.5" text-anchor="middle">«action»</text><text class="nn bd" x="88" y="27" text-anchor="middle">watchThroughPowerCut</text><path class="rule" d="M0,35 H176"/><text class="kk cl" x="88" y="45" text-anchor="middle">doc</text><text class="ft" x="7" y="59">MRTM-FUN-005</text><rect class="pt" x="-5" y="47" width="10" height="10" tabindex="0" role="button" rx="3" aria-label="out parameter power" data-port="AircraftFunctions::ProductFunctions::watchThroughPowerCut::power" data-side="w" data-dir="out" data-px="1184" data-py="148"/><path class="pd" d="M3,49 L-3,52 L3,55"/><path class="rule" d="M-55,-7 L0,52" stroke-dasharray="2 3" data-pinleader="AircraftFunctions::ProductFunctions::watchThroughPowerCut::power"/><text class="ft" x="-1.5" y="-10" text-anchor="end" data-port="AircraftFunctions::ProductFunctions::watchThroughPowerCut::power" data-px="1184" data-py="148">power : PowerEvent</text></g></g><path class="ed" d="M377,220 L567,220" data-el="AircraftFunctions::ProductFunctions::monitorAir::sample" data-edge="AircraftFunctions::ProductFunctions::warnExcursion::sample&gt;flow" data-from="AircraftFunctions::ProductFunctions::monitorAir::sample" data-to="AircraftFunctions::ProductFunctions::warnExcursion::sample" marker-end="url(#far)"/><text class="edl" x="472" y="235" text-anchor="middle" data-word="AircraftFunctions::ProductFunctions::monitorAir::sample|AircraftFunctions::ProductFunctions::warnExcursion::sample&gt;flow">TemperatureSample</text><path class="ed" d="M729,220 L854.5,220 Q860.5,220 860.5,214 L860.5,154 Q860.5,148 866.5,148 L915,148" data-el="AircraftFunctions::ProductFunctions::warnExcursion::excursion" data-edge="AircraftFunctions::ProductFunctions::acknowledgeWarning::excursion&gt;flow" data-from="AircraftFunctions::ProductFunctions::warnExcursion::excursion" data-to="AircraftFunctions::ProductFunctions::acknowledgeWarning::excursion" marker-end="url(#far)"/><text class="edl" x="916.5" y="220" text-anchor="middle" data-word="AircraftFunctions::ProductFunctions::warnExcursion::excursion|AircraftFunctions::ProductFunctions::acknowledgeWarning::excursion&gt;flow">ExcursionState</text><path class="ed" d="M729,220 L854.5,220 Q860.5,220 860.5,226 L860.5,290 Q860.5,296 866.5,296 L915,296" data-el="AircraftFunctions::ProductFunctions::warnExcursion::excursion" data-edge="AircraftFunctions::ProductFunctions::keepHistory::excursion&gt;flow" data-from="AircraftFunctions::ProductFunctions::warnExcursion::excursion" data-to="AircraftFunctions::ProductFunctions::keepHistory::excursion" marker-end="url(#far)"/><text class="edl" x="805" y="233" text-anchor="middle" data-word="AircraftFunctions::ProductFunctions::warnExcursion::excursion|AircraftFunctions::ProductFunctions::keepHistory::excursion&gt;flow">ExcursionState</text><path class="ed" d="M372,219.5 L381.5,219.5 Q384,219.5 384,217 L384,217 Q384,214 387,214 L557.5,214 Q560,214 560,217 L560,217 Q560,219.5 563,219.5 L572,219.5" data-el="AircraftFunctions::ProductFunctions::monitorAir" data-edge="AircraftFunctions::ProductFunctions::warnExcursion&gt;succession" data-from="AircraftFunctions::ProductFunctions::monitorAir" data-to="AircraftFunctions::ProductFunctions::warnExcursion" marker-end="url(#ar)" stroke-dasharray="6 4"/></g></svg>