<svg class="pic cls dcl" id="pic" xmlns="http://www.w3.org/2000/svg"><defs><marker id="ar" viewBox="0 0 10 10" refX="9.5" refY="5" markerWidth="9" markerHeight="9" orient="auto-start-reverse"><path d="M0,1 L10,5 L0,9" fill="none" stroke="context-stroke" stroke-width="1.111"/></marker><marker id="tri" viewBox="0 0 12 12" refX="11" refY="6" markerWidth="10.8" markerHeight="10.8" orient="auto-start-reverse"><path d="M0,0.5 L11,6 L0,11.5 Z" fill="var(--panel)" stroke="context-stroke" stroke-width="1.111"/></marker><marker id="far" viewBox="0 0 10 10" refX="9.5" refY="5" markerWidth="9" markerHeight="9" orient="auto-start-reverse"><path d="M0,1 L10,5 L0,9 Z" fill="context-stroke" stroke="context-stroke" stroke-width="1.111" stroke-linejoin="round"/></marker><marker id="trid" viewBox="0 0 16 12" refX="15" refY="6" markerWidth="14.4" markerHeight="10.8" orient="auto-start-reverse"><path d="M4,0.5 L15,6 L4,11.5 Z" fill="var(--panel)" stroke="context-stroke" stroke-width="1.111"/><circle cx="1.8" cy="3.4" r="1.1" fill="context-stroke"/><circle cx="1.8" cy="8.6" r="1.1" fill="context-stroke"/></marker><marker id="trib" viewBox="0 0 14 12" refX="13" refY="6" markerWidth="12.6" markerHeight="10.8" orient="auto-start-reverse"><path d="M3,0.5 L13,6 L3,11.5 Z" fill="var(--panel)" stroke="context-stroke" stroke-width="1.111"/><path d="M1.3,0.8 V11.2" fill="none" stroke="context-stroke" stroke-width="1.111"/></marker><marker id="dia" viewBox="0 0 14 10" refX="13" refY="5" markerWidth="12.6" markerHeight="9" orient="auto-start-reverse"><path d="M0,5 L6,1 L13,5 L6,9 Z" fill="context-stroke" stroke="context-stroke" stroke-width="1.111"/></marker><marker id="odia" viewBox="0 0 14 10" refX="13" refY="5" markerWidth="12.6" markerHeight="9" orient="auto-start-reverse"><path d="M0,5 L6,1 L13,5 L6,9 Z" fill="var(--panel)" stroke="context-stroke" stroke-width="1.111"/></marker><marker id="por" viewBox="0 0 14 14" refX="13.5" refY="7" markerWidth="12.6" markerHeight="12.6" orient="auto-start-reverse"><path d="M8,7 L3.79,3.46 A5.5,5.5 0 1 1 3.79,10.54 Z" fill="context-stroke" stroke="context-stroke" stroke-width="1.111"/></marker></defs><g id="zoom"><rect class="fr" x="0" y="0" width="2040" height="762" rx="10"/><rect class="frt" x="0" y="0" width="399" height="18" rx="2"/><text class="frn" x="8" y="12.5">«view» system_items : StandardViewDefinitions::GeneralView</text><g class="nd" tabindex="0" role="button" aria-pressed="false" aria-label="part def MonitorSystemItems" data-el="SystemItems::MonitorSystemItems" data-x="1000" data-y="20" data-w="160" data-h="49" transform="translate(1000,20)"><rect class="bx" width="160" height="49" rx="2"/><rect class="hd" x="1" y="1" width="158" height="33" rx="1"/><text class="kk kw" x="80" y="11.5" text-anchor="middle">«part def»</text><text class="nn bd" x="80" y="27" text-anchor="middle">MonitorSystemItems</text></g><g class="nd" tabindex="0" role="button" aria-pressed="false" aria-label="part sensorHw" data-el="SystemItems::MonitorSystemItems::sensorHw" data-x="20" data-y="200" data-w="400" data-h="122" transform="translate(20,200)"><rect class="bx" width="400" height="122" rx="10"/><rect class="hd" x="1" y="1" width="398" height="33" rx="1"/><text class="kk kw" x="200" y="11.5" text-anchor="middle">«part»</text><text class="nn bd" x="200" y="27" text-anchor="middle">sensorHw : SensorHw</text><path class="rule" d="M0,35 H400"/><text class="kk cl" x="200" y="45" text-anchor="middle">attributes</text><text class="ft" x="7" y="59">^itemDal : DesignAssuranceLevel = DesignAssuranceLevel::A</text><path class="rule" d="M0,71 H400"/><text class="kk cl" x="200" y="81" text-anchor="middle">ports</text><text class="ft" x="7" y="95">^air : ~ThermalPort</text><text class="ft" x="7" y="110">^bus : ~OneWirePort</text></g><g class="nd" tabindex="0" role="button" aria-pressed="false" aria-label="part alarmHw" data-el="SystemItems::MonitorSystemItems::alarmHw" data-x="420" data-y="200" data-w="400" data-h="197" transform="translate(420,200)"><rect class="bx" width="400" height="197" rx="10"/><rect class="hd" x="1" y="1" width="398" height="33" rx="1"/><text class="kk kw" x="200" y="11.5" text-anchor="middle">«part»</text><text class="nn bd" x="200" y="27" text-anchor="middle">alarmHw : AlarmHw</text><path class="rule" d="M0,35 H400"/><text class="kk cl" x="200" y="45" text-anchor="middle">attributes</text><text class="ft" x="7" y="59">^itemDal : DesignAssuranceLevel = DesignAssuranceLevel::A</text><path class="rule" d="M0,71 H400"/><text class="kk cl" x="200" y="81" text-anchor="middle">ports</text><text class="ft" x="7" y="95">^buzzerDrive : ~GpioOutPort</text><text class="ft" x="7" y="110">^redLed : ~GpioOutPort</text><text class="ft" x="7" y="125">^wdtPulse : ~GpioOutPort</text><text class="ft" x="7" y="140">^ack : ~GpioInPort</text><text class="ft" x="7" y="155">^buzzerSense : ~GpioInPort</text><text class="ft" x="7" y="170">^supply : ~PowerPort</text><text class="ft" x="7" y="185">^alarmSignals : AlarmHmiPort</text></g><g class="nd" tabindex="0" role="button" aria-pressed="false" aria-label="part controllerHw" data-el="SystemItems::MonitorSystemItems::controllerHw" data-x="820" data-y="200" data-w="400" data-h="242" transform="translate(820,200)"><rect class="bx" width="400" height="242" rx="10"/><rect class="hd" x="1" y="1" width="398" height="33" rx="1"/><text class="kk kw" x="200" y="11.5" text-anchor="middle">«part»</text><text class="nn bd" x="200" y="27" text-anchor="middle">controllerHw : ControllerHw</text><path class="rule" d="M0,35 H400"/><text class="kk cl" x="200" y="45" text-anchor="middle">attributes</text><text class="ft" x="7" y="59">^itemDal : DesignAssuranceLevel = DesignAssuranceLevel::A</text><path class="rule" d="M0,71 H400"/><text class="kk cl" x="200" y="81" text-anchor="middle">ports</text><text class="ft" x="7" y="95">^probeBus : OneWirePort</text><text class="ft" x="7" y="110">^i2c : I2cPort</text><text class="ft" x="7" y="125">^buzzerDrive : GpioOutPort</text><text class="ft" x="7" y="140">^redLed : GpioOutPort</text><text class="ft" x="7" y="155">^wdtPulse : GpioOutPort</text><text class="ft" x="7" y="170">^ack : GpioInPort</text><text class="ft" x="7" y="185">^buzzerSense : GpioInPort</text><text class="ft" x="7" y="200">^mainsSense : GpioInPort</text><text class="ft" x="7" y="215">^usb : UsbPort</text><text class="ft" x="7" y="230">^supply : ~PowerPort</text></g><g class="nd" tabindex="0" role="button" aria-pressed="false" aria-label="part powerHw" data-el="SystemItems::MonitorSystemItems::powerHw" data-x="1220" data-y="200" data-w="400" data-h="137" transform="translate(1220,200)"><rect class="bx" width="400" height="137" rx="10"/><rect class="hd" x="1" y="1" width="398" height="33" rx="1"/><text class="kk kw" x="200" y="11.5" text-anchor="middle">«part»</text><text class="nn bd" x="200" y="27" text-anchor="middle">powerHw : PowerHw</text><path class="rule" d="M0,35 H400"/><text class="kk cl" x="200" y="45" text-anchor="middle">attributes</text><text class="ft" x="7" y="59">^itemDal : DesignAssuranceLevel = DesignAssuranceLevel::B</text><path class="rule" d="M0,71 H400"/><text class="kk cl" x="200" y="81" text-anchor="middle">ports</text><text class="ft" x="7" y="95">^mains : ~PowerPort</text><text class="ft" x="7" y="110">^supply : PowerPort</text><text class="ft" x="7" y="125">^mainsSense : ~GpioInPort</text></g><g class="nd" tabindex="0" role="button" aria-pressed="false" aria-label="part displayHw" data-el="SystemItems::MonitorSystemItems::displayHw" data-x="1620" data-y="200" data-w="400" data-h="137" transform="translate(1620,200)"><rect class="bx" width="400" height="137" rx="10"/><rect class="hd" x="1" y="1" width="398" height="33" rx="1"/><text class="kk kw" x="200" y="11.5" text-anchor="middle">«part»</text><text class="nn bd" x="200" y="27" text-anchor="middle">displayHw : DisplayHw</text><path class="rule" d="M0,35 H400"/><text class="kk cl" x="200" y="45" text-anchor="middle">attributes</text><text class="ft" x="7" y="59">^itemDal : DesignAssuranceLevel = DesignAssuranceLevel::B</text><path class="rule" d="M0,71 H400"/><text class="kk cl" x="200" y="81" text-anchor="middle">ports</text><text class="ft" x="7" y="95">^i2c : ~I2cPort</text><text class="ft" x="7" y="110">^supply : ~PowerPort</text><text class="ft" x="7" y="125">^screen : ScreenPort</text></g><g class="nd" tabindex="0" role="button" aria-pressed="false" aria-label="part alarmSw" data-el="SystemItems::MonitorSystemItems::alarmSw" data-x="20" data-y="560" data-w="400" data-h="182" transform="translate(20,560)"><rect class="bx" width="400" height="182" rx="10"/><rect class="hd" x="1" y="1" width="398" height="33" rx="1"/><text class="kk kw" x="200" y="11.5" text-anchor="middle">«part»</text><text class="nn bd" x="200" y="27" text-anchor="middle">alarmSw : AlarmSw</text><path class="rule" d="M0,35 H400"/><text class="kk cl" x="200" y="45" text-anchor="middle">attributes</text><text class="ft" x="7" y="59">^itemDal : DesignAssuranceLevel = DesignAssuranceLevel::A</text><path class="rule" d="M0,71 H400"/><text class="kk cl" x="200" y="81" text-anchor="middle">ports</text><text class="ft" x="7" y="95">^samples : SampleFlow</text><text class="ft" x="7" y="110">^alarmState : AlarmStateFlow</text><text class="ft" x="7" y="125">^records : RecordFlow</text><text class="ft" x="7" y="140">^heartbeat : HeartbeatFlow</text><text class="ft" x="7" y="155">^band : ~BandFlow</text><text class="ft" x="7" y="170">^powerEvents : ~PowerEventFlow</text></g><g class="nd" tabindex="0" role="button" aria-pressed="false" aria-label="part platformSw" data-el="SystemItems::MonitorSystemItems::platformSw" data-x="420" data-y="560" data-w="400" data-h="152" transform="translate(420,560)"><rect class="bx" width="400" height="152" rx="10"/><rect class="hd" x="1" y="1" width="398" height="33" rx="1"/><text class="kk kw" x="200" y="11.5" text-anchor="middle">«part»</text><text class="nn bd" x="200" y="27" text-anchor="middle">platformSw : PlatformSw</text><path class="rule" d="M0,35 H400"/><text class="kk cl" x="200" y="45" text-anchor="middle">attributes</text><text class="ft" x="7" y="59">^itemDal : DesignAssuranceLevel = DesignAssuranceLevel::A</text><path class="rule" d="M0,71 H400"/><text class="kk cl" x="200" y="81" text-anchor="middle">ports</text><text class="ft" x="7" y="95">^heartbeat : ~HeartbeatFlow</text><text class="ft" x="7" y="110">^band : BandFlow</text><text class="ft" x="7" y="125">^powerEvents : PowerEventFlow</text><text class="ft" x="7" y="140">^records : RecordFlow</text></g><g class="nd" tabindex="0" role="button" aria-pressed="false" aria-label="part displaySw" data-el="SystemItems::MonitorSystemItems::displaySw" data-x="820" data-y="560" data-w="400" data-h="122" transform="translate(820,560)"><rect class="bx" width="400" height="122" rx="10"/><rect class="hd" x="1" y="1" width="398" height="33" rx="1"/><text class="kk kw" x="200" y="11.5" text-anchor="middle">«part»</text><text class="nn bd" x="200" y="27" text-anchor="middle">displaySw : DisplaySw</text><path class="rule" d="M0,35 H400"/><text class="kk cl" x="200" y="45" text-anchor="middle">attributes</text><text class="ft" x="7" y="59">^itemDal : DesignAssuranceLevel = DesignAssuranceLevel::B</text><path class="rule" d="M0,71 H400"/><text class="kk cl" x="200" y="81" text-anchor="middle">ports</text><text class="ft" x="7" y="95">^samples : ~SampleFlow</text><text class="ft" x="7" y="110">^alarmState : ~AlarmStateFlow</text></g><g class="nd" tabindex="0" role="button" aria-pressed="false" aria-label="part recordSw" data-el="SystemItems::MonitorSystemItems::recordSw" data-x="1220" data-y="560" data-w="400" data-h="122" transform="translate(1220,560)"><rect class="bx" width="400" height="122" rx="10"/><rect class="hd" x="1" y="1" width="398" height="33" rx="1"/><text class="kk kw" x="200" y="11.5" text-anchor="middle">«part»</text><text class="nn bd" x="200" y="27" text-anchor="middle">recordSw : RecordSw</text><path class="rule" d="M0,35 H400"/><text class="kk cl" x="200" y="45" text-anchor="middle">attributes</text><text class="ft" x="7" y="59">^itemDal : DesignAssuranceLevel = DesignAssuranceLevel::C</text><path class="rule" d="M0,71 H400"/><text class="kk cl" x="200" y="81" text-anchor="middle">ports</text><text class="ft" x="7" y="95">^records : ~RecordFlow</text><text class="ft" x="7" y="110">^history : HistoryFlow</text></g><g class="nd" tabindex="0" role="button" aria-pressed="false" aria-label="part exportSw" data-el="SystemItems::MonitorSystemItems::exportSw" data-x="1620" data-y="560" data-w="400" data-h="107" transform="translate(1620,560)"><rect class="bx" width="400" height="107" rx="10"/><rect class="hd" x="1" y="1" width="398" height="33" rx="1"/><text class="kk kw" x="200" y="11.5" text-anchor="middle">«part»</text><text class="nn bd" x="200" y="27" text-anchor="middle">exportSw : ExportSw</text><path class="rule" d="M0,35 H400"/><text class="kk cl" x="200" y="45" text-anchor="middle">attributes</text><text class="ft" x="7" y="59">^itemDal : DesignAssuranceLevel = DesignAssuranceLevel::D</text><path class="rule" d="M0,71 H400"/><text class="kk cl" x="200" y="81" text-anchor="middle">ports</text><text class="ft" x="7" y="95">^history : ~HistoryFlow</text></g><path class="ed" d="M1000,44.5 L226,44.5 Q220,44.5 220,50.5 L220,200" data-el="SystemItems::MonitorSystemItems" data-edge="SystemItems::MonitorSystemItems::sensorHw&gt;containment" data-from="SystemItems::MonitorSystemItems" data-to="SystemItems::MonitorSystemItems::sensorHw" marker-start="url(#dia)"/><path class="ed" d="M1000,44.5 L626,44.5 Q620,44.5 620,50.5 L620,200" data-el="SystemItems::MonitorSystemItems" data-edge="SystemItems::MonitorSystemItems::alarmHw&gt;containment" data-from="SystemItems::MonitorSystemItems" data-to="SystemItems::MonitorSystemItems::alarmHw" marker-start="url(#dia)"/><path class="ed" d="M1072,69 L1072,75 Q1072,81 1066,81 L1026,81 Q1020,81 1020,87 L1020,200" data-el="SystemItems::MonitorSystemItems" data-edge="SystemItems::MonitorSystemItems::controllerHw&gt;containment" data-from="SystemItems::MonitorSystemItems" data-to="SystemItems::MonitorSystemItems::controllerHw" marker-start="url(#dia)"/><path class="ed" d="M1160,44.5 L1414,44.5 Q1420,44.5 1420,50.5 L1420,200" data-el="SystemItems::MonitorSystemItems" data-edge="SystemItems::MonitorSystemItems::powerHw&gt;containment" data-from="SystemItems::MonitorSystemItems" data-to="SystemItems::MonitorSystemItems::powerHw" marker-start="url(#dia)"/><path class="ed" d="M1160,44.5 L1814,44.5 Q1820,44.5 1820,50.5 L1820,200" data-el="SystemItems::MonitorSystemItems" data-edge="SystemItems::MonitorSystemItems::displayHw&gt;containment" data-from="SystemItems::MonitorSystemItems" data-to="SystemItems::MonitorSystemItems::displayHw" marker-start="url(#dia)"/><path class="ed" d="M1000,44.5 L14,44.5 Q8,44.5 8,50.5 L8,448 Q8,454 14,454 L214,454 Q220,454 220,460 L220,560" data-el="SystemItems::MonitorSystemItems" data-edge="SystemItems::MonitorSystemItems::alarmSw&gt;containment" data-from="SystemItems::MonitorSystemItems" data-to="SystemItems::MonitorSystemItems::alarmSw" marker-start="url(#dia)"/><path class="ed" d="M1000,44.5 L14,44.5 Q8,44.5 8,50.5 L8,542 Q8,548 14,548 L614,548 Q620,548 620,554 L620,560" data-el="SystemItems::MonitorSystemItems" data-edge="SystemItems::MonitorSystemItems::platformSw&gt;containment" data-from="SystemItems::MonitorSystemItems" data-to="SystemItems::MonitorSystemItems::platformSw" marker-start="url(#dia)"/><path class="ed" d="M1088,69 L1088,182 Q1088,188 1094,188 L2026,188 Q2032,188 2032,194 L2032,448 Q2032,454 2026,454 L1026,454 Q1020,454 1020,460 L1020,560" data-el="SystemItems::MonitorSystemItems" data-edge="SystemItems::MonitorSystemItems::displaySw&gt;containment" data-from="SystemItems::MonitorSystemItems" data-to="SystemItems::MonitorSystemItems::displaySw" marker-start="url(#dia)"/><path class="ed" d="M1160,44.5 L2026,44.5 Q2032,44.5 2032,50.5 L2032,448 Q2032,454 2026,454 L1426,454 Q1420,454 1420,460 L1420,560" data-el="SystemItems::MonitorSystemItems" data-edge="SystemItems::MonitorSystemItems::recordSw&gt;containment" data-from="SystemItems::MonitorSystemItems" data-to="SystemItems::MonitorSystemItems::recordSw" marker-start="url(#dia)"/><path class="ed" d="M1160,44.5 L2026,44.5 Q2032,44.5 2032,50.5 L2032,448 Q2032,454 2026,454 L1826,454 Q1820,454 1820,460 L1820,560" data-el="SystemItems::MonitorSystemItems" data-edge="SystemItems::MonitorSystemItems::exportSw&gt;containment" data-from="SystemItems::MonitorSystemItems" data-to="SystemItems::MonitorSystemItems::exportSw" marker-start="url(#dia)"/></g></svg>