<svg class="pic cls dcl" id="pic" xmlns="http://www.w3.org/2000/svg"><defs><marker id="ar" viewBox="0 0 10 10" refX="9.5" refY="5" markerWidth="9" markerHeight="9" orient="auto-start-reverse"><path d="M0,1 L10,5 L0,9" fill="none" stroke="context-stroke" stroke-width="1.111"/></marker><marker id="tri" viewBox="0 0 12 12" refX="11" refY="6" markerWidth="10.8" markerHeight="10.8" orient="auto-start-reverse"><path d="M0,0.5 L11,6 L0,11.5 Z" fill="var(--panel)" stroke="context-stroke" stroke-width="1.111"/></marker><marker id="far" viewBox="0 0 10 10" refX="9.5" refY="5" markerWidth="9" markerHeight="9" orient="auto-start-reverse"><path d="M0,1 L10,5 L0,9 Z" fill="context-stroke" stroke="context-stroke" stroke-width="1.111" stroke-linejoin="round"/></marker><marker id="trid" viewBox="0 0 16 12" refX="15" refY="6" markerWidth="14.4" markerHeight="10.8" orient="auto-start-reverse"><path d="M4,0.5 L15,6 L4,11.5 Z" fill="var(--panel)" stroke="context-stroke" stroke-width="1.111"/><circle cx="1.8" cy="3.4" r="1.1" fill="context-stroke"/><circle cx="1.8" cy="8.6" r="1.1" fill="context-stroke"/></marker><marker id="trib" viewBox="0 0 14 12" refX="13" refY="6" markerWidth="12.6" markerHeight="10.8" orient="auto-start-reverse"><path d="M3,0.5 L13,6 L3,11.5 Z" fill="var(--panel)" stroke="context-stroke" stroke-width="1.111"/><path d="M1.3,0.8 V11.2" fill="none" stroke="context-stroke" stroke-width="1.111"/></marker><marker id="dia" viewBox="0 0 14 10" refX="13" refY="5" markerWidth="12.6" markerHeight="9" orient="auto-start-reverse"><path d="M0,5 L6,1 L13,5 L6,9 Z" fill="context-stroke" stroke="context-stroke" stroke-width="1.111"/></marker><marker id="odia" viewBox="0 0 14 10" refX="13" refY="5" markerWidth="12.6" markerHeight="9" orient="auto-start-reverse"><path d="M0,5 L6,1 L13,5 L6,9 Z" fill="var(--panel)" stroke="context-stroke" stroke-width="1.111"/></marker><marker id="por" viewBox="0 0 14 14" refX="13.5" refY="7" markerWidth="12.6" markerHeight="12.6" orient="auto-start-reverse"><path d="M8,7 L3.79,3.46 A5.5,5.5 0 1 1 3.79,10.54 Z" fill="context-stroke" stroke="context-stroke" stroke-width="1.111"/></marker></defs><g id="zoom"><rect class="fr" x="0" y="0" width="1650" height="587" rx="10"/><rect class="frt" x="0" y="0" width="472" height="18" rx="2"/><text class="frn" x="8" y="12.5">«view» system_hardware : StandardViewDefinitions::InterconnectionView</text><g class="nd" tabindex="0" role="button" aria-pressed="false" aria-label="part sensorHw" data-el="SystemHardware::sensorHw" data-x="340" data-y="40" data-w="168" data-h="49" data-plain="1" transform="translate(340,40)"><rect class="bx" width="168" height="49" rx="10"/><rect class="hd" x="1" y="1" width="166" height="33" rx="1"/><text class="kk kw" x="84" y="11.5" text-anchor="middle">«part»</text><text class="nn bd" x="84" y="27" text-anchor="middle">sensorHw : SensorHw</text><rect class="pt cj" x="-5" y="20" width="10" height="10" tabindex="0" role="button" rx="3" aria-label="conjugated port ^air" data-port="SystemHardware::sensorHw::air" data-side="w" data-dir="in" data-px="340" data-py="65"/><path class="pd" d="M-3,22 L3,25 L-3,28"/><text class="ft" x="-9" y="41" text-anchor="end" data-port="SystemHardware::sensorHw::air" data-px="340" data-py="65">^air : ~ThermalPort</text><rect class="pt cj" x="163" y="20" width="10" height="10" tabindex="0" role="button" rx="3" aria-label="conjugated port ^bus" data-port="SystemHardware::sensorHw::bus" data-side="e" data-dir="in" data-px="508" data-py="65"/><path class="pd" d="M171,22 L165,25 L171,28"/><text class="ft" x="177" y="41" text-anchor="start" data-port="SystemHardware::sensorHw::bus" data-px="508" data-py="65">^bus : ~OneWirePort</text></g><g class="nd" tabindex="0" role="button" aria-pressed="false" aria-label="part controllerHw" data-el="SystemHardware::controllerHw" data-x="700" data-y="260" data-w="228" data-h="49" data-plain="1" transform="translate(700,260)"><rect class="bx" width="228" height="49" rx="10"/><rect class="hd" x="1" y="1" width="226" height="33" rx="1"/><text class="kk kw" x="114" y="11.5" text-anchor="middle">«part»</text><text class="nn bd" x="114" y="27" text-anchor="middle">controllerHw : ControllerHw</text><rect class="pt" x="-5" y="5" width="10" height="10" tabindex="0" role="button" rx="3" aria-label="port ^probeBus" data-port="SystemHardware::controllerHw::probeBus" data-side="w" data-dir="out" data-px="700" data-py="270"/><path class="pd" d="M3,7 L-3,10 L3,13"/><text class="ft" x="-86" y="44" text-anchor="end" data-port="SystemHardware::controllerHw::probeBus" data-px="700" data-py="270">^probeBus : OneWirePort</text><rect class="pt" x="223" y="2" width="10" height="10" tabindex="0" role="button" rx="3" aria-label="port ^i2c" data-port="SystemHardware::controllerHw::i2c" data-side="e" data-dir="out" data-px="928" data-py="267"/><path class="pd" d="M225,4 L231,7 L225,10"/><text class="ft" x="294.5" y="127" text-anchor="start" data-port="SystemHardware::controllerHw::i2c" data-px="928" data-py="267">^i2c : I2cPort</text><rect class="pt" x="223" y="9" width="10" height="10" tabindex="0" role="button" rx="3" aria-label="port ^buzzerDrive" data-port="SystemHardware::controllerHw::buzzerDrive" data-side="e" data-dir="out" data-px="928" data-py="274"/><path class="pd" d="M225,11 L231,14 L225,17"/><text class="ft" x="323.5" y="48" text-anchor="start" data-port="SystemHardware::controllerHw::buzzerDrive" data-px="928" data-py="274">^buzzerDrive : GpioOutPort</text><rect class="pt" x="223" y="16" width="10" height="10" tabindex="0" role="button" rx="3" aria-label="port ^redLed" data-port="SystemHardware::controllerHw::redLed" data-side="e" data-dir="out" data-px="928" data-py="281"/><path class="pd" d="M225,18 L231,21 L225,24"/><text class="ft" x="307" y="71" text-anchor="start" data-port="SystemHardware::controllerHw::redLed" data-px="928" data-py="281">^redLed : GpioOutPort</text><rect class="pt" x="223" y="23" width="10" height="10" tabindex="0" role="button" rx="3" aria-label="port ^wdtPulse" data-port="SystemHardware::controllerHw::wdtPulse" data-side="e" data-dir="out" data-px="928" data-py="288"/><path class="pd" d="M225,25 L231,28 L225,31"/><path class="rule" d="M306,-47 L306,28" stroke-dasharray="2 3" data-pinleader="SystemHardware::controllerHw::wdtPulse"/><text class="ft" x="229" y="-50" text-anchor="start" data-port="SystemHardware::controllerHw::wdtPulse" data-px="928" data-py="288">^wdtPulse : GpioOutPort</text><rect class="pt" x="223" y="30" width="10" height="10" tabindex="0" role="button" rx="3" aria-label="port ^ack" data-port="SystemHardware::controllerHw::ack" data-side="e" data-dir="in" data-px="928" data-py="295"/><path class="pd" d="M231,32 L225,35 L231,38"/><text class="ft" x="307.5" y="93" text-anchor="start" data-port="SystemHardware::controllerHw::ack" data-px="928" data-py="295">^ack : GpioInPort</text><rect class="pt" x="223" y="37" width="10" height="10" tabindex="0" role="button" rx="3" aria-label="port ^buzzerSense" data-port="SystemHardware::controllerHw::buzzerSense" data-side="e" data-dir="in" data-px="928" data-py="302"/><path class="pd" d="M231,39 L225,42 L231,45"/><path class="rule" d="M360,258.5 L360,109" stroke-dasharray="2 3" data-pinleader="SystemHardware::controllerHw::buzzerSense"/><text class="ft" x="276.5" y="270.5" text-anchor="start" data-port="SystemHardware::controllerHw::buzzerSense" data-px="928" data-py="302">^buzzerSense : GpioInPort</text><rect class="pt" x="-5" y="15" width="10" height="10" tabindex="0" role="button" rx="3" aria-label="port ^mainsSense" data-port="SystemHardware::controllerHw::mainsSense" data-side="w" data-dir="in" data-px="700" data-py="280"/><path class="pd" d="M-3,17 L3,20 L-3,23"/><text class="ft" x="-49.5" y="78" text-anchor="end" data-port="SystemHardware::controllerHw::mainsSense" data-px="700" data-py="280">^mainsSense : GpioInPort</text><rect class="pt" x="-5" y="24" width="10" height="10" tabindex="0" role="button" rx="3" aria-label="port ^usb" data-port="SystemHardware::controllerHw::usb" data-side="w" data-dir="out" data-px="700" data-py="289"/><path class="pd" d="M3,26 L-3,29 L3,32"/><path class="rule" d="M-85,-5 L0,29" stroke-dasharray="2 3" data-pinleader="SystemHardware::controllerHw::usb"/><text class="ft" x="-56.5" y="-8" text-anchor="end" data-port="SystemHardware::controllerHw::usb" data-px="700" data-py="289">^usb : UsbPort</text><rect class="pt cj" x="-5" y="34" width="10" height="10" tabindex="0" role="button" rx="3" aria-label="conjugated port ^supply" data-port="SystemHardware::controllerHw::supply" data-side="w" data-dir="in" data-px="700" data-py="299"/><path class="pd" d="M-3,36 L3,39 L-3,42"/><text class="ft" x="-65" y="231" text-anchor="end" data-port="SystemHardware::controllerHw::supply" data-px="700" data-py="299">^supply : ~PowerPort</text></g><g class="nd" tabindex="0" role="button" aria-pressed="false" aria-label="part alarmHw" data-el="SystemHardware::alarmHw" data-x="1100" data-y="100" data-w="156" data-h="49" data-plain="1" transform="translate(1100,100)"><rect class="bx" width="156" height="49" rx="10"/><rect class="hd" x="1" y="1" width="154" height="33" rx="1"/><text class="kk kw" x="78" y="11.5" text-anchor="middle">«part»</text><text class="nn bd" x="78" y="27" text-anchor="middle">alarmHw : AlarmHw</text><rect class="pt cj" x="-5" y="2" width="10" height="10" tabindex="0" role="button" rx="3" aria-label="conjugated port ^buzzerDrive" data-port="SystemHardware::alarmHw::buzzerDrive" data-side="w" data-dir="in" data-px="1100" data-py="107"/><path class="pd" d="M-3,4 L3,7 L-3,10"/><text class="ft" x="-20" y="7" text-anchor="end" data-port="SystemHardware::alarmHw::buzzerDrive" data-px="1100" data-py="107">^buzzerDrive : ~GpioOutPort</text><rect class="pt cj" x="-5" y="9" width="10" height="10" tabindex="0" role="button" rx="3" aria-label="conjugated port ^redLed" data-port="SystemHardware::alarmHw::redLed" data-side="w" data-dir="in" data-px="1100" data-py="114"/><path class="pd" d="M-3,11 L3,14 L-3,17"/><path class="rule" d="M-68,-27 L-23,14" stroke-dasharray="2 3" data-pinleader="SystemHardware::alarmHw::redLed"/><text class="ft" x="-2.5" y="-30" text-anchor="end" data-port="SystemHardware::alarmHw::redLed" data-px="1100" data-py="114">^redLed : ~GpioOutPort</text><rect class="pt cj" x="-5" y="16" width="10" height="10" tabindex="0" role="button" rx="3" aria-label="conjugated port ^wdtPulse" data-port="SystemHardware::alarmHw::wdtPulse" data-side="w" data-dir="in" data-px="1100" data-py="121"/><path class="pd" d="M-3,18 L3,21 L-3,24"/><path class="rule" d="M-89.5,26.5 L-10,26" stroke-dasharray="2 3" data-pinleader="SystemHardware::alarmHw::wdtPulse"/><text class="ft" x="-89.5" y="32" text-anchor="end" data-port="SystemHardware::alarmHw::wdtPulse" data-px="1100" data-py="121">^wdtPulse : ~GpioOutPort</text><rect class="pt cj" x="-5" y="23" width="10" height="10" tabindex="0" role="button" rx="3" aria-label="conjugated port ^ack" data-port="SystemHardware::alarmHw::ack" data-side="w" data-dir="out" data-px="1100" data-py="128"/><path class="pd" d="M3,25 L-3,28 L3,31"/><text class="ft" x="-69.5" y="62" text-anchor="end" data-port="SystemHardware::alarmHw::ack" data-px="1100" data-py="128">^ack : ~GpioInPort</text><rect class="pt cj" x="-5" y="30" width="10" height="10" tabindex="0" role="button" rx="3" aria-label="conjugated port ^buzzerSense" data-port="SystemHardware::alarmHw::buzzerSense" data-side="w" data-dir="out" data-px="1100" data-py="135"/><path class="pd" d="M3,32 L-3,35 L3,38"/><path class="rule" d="M-181.5,88 L-167,202" stroke-dasharray="2 3" data-pinleader="SystemHardware::alarmHw::buzzerSense"/><text class="ft" x="-95.5" y="85" text-anchor="end" data-port="SystemHardware::alarmHw::buzzerSense" data-px="1100" data-py="135">^buzzerSense : ~GpioInPort</text><rect class="pt cj" x="-5" y="37" width="10" height="10" tabindex="0" role="button" rx="3" aria-label="conjugated port ^supply" data-port="SystemHardware::alarmHw::supply" data-side="w" data-dir="in" data-px="1100" data-py="142"/><path class="pd" d="M-3,39 L3,42 L-3,45"/><path class="rule" d="M-234,-17.5 L-234,42" stroke-dasharray="2 3" data-pinleader="SystemHardware::alarmHw::supply"/><text class="ft" x="-167" y="-20.5" text-anchor="end" data-port="SystemHardware::alarmHw::supply" data-px="1100" data-py="142">^supply : ~PowerPort</text><rect class="pt" x="151" y="20" width="10" height="10" tabindex="0" role="button" rx="3" aria-label="port ^alarmSignals" data-port="SystemHardware::alarmHw::alarmSignals" data-side="e" data-dir="inout" data-px="1256" data-py="125"/><path class="pd" d="M153,22 L159,25 L153,28"/><path class="pd" d="M159,22 L153,25 L159,28"/><text class="ft" x="165" y="41" text-anchor="start" data-port="SystemHardware::alarmHw::alarmSignals" data-px="1256" data-py="125">^alarmSignals : AlarmHmiPort</text></g><g class="nd" tabindex="0" role="button" aria-pressed="false" aria-label="part displayHw" data-el="SystemHardware::displayHw" data-x="1100" data-y="440" data-w="184" data-h="49" data-plain="1" transform="translate(1100,440)"><rect class="bx" width="184" height="49" rx="10"/><rect class="hd" x="1" y="1" width="182" height="33" rx="1"/><text class="kk kw" x="92" y="11.5" text-anchor="middle">«part»</text><text class="nn bd" x="92" y="27" text-anchor="middle">displayHw : DisplayHw</text><rect class="pt cj" x="-5" y="11" width="10" height="10" tabindex="0" role="button" rx="3" aria-label="conjugated port ^i2c" data-port="SystemHardware::displayHw::i2c" data-side="w" data-dir="in" data-px="1100" data-py="456"/><path class="pd" d="M-3,13 L3,16 L-3,19"/><text class="ft" x="-59.5" y="50" text-anchor="end" data-port="SystemHardware::displayHw::i2c" data-px="1100" data-py="456">^i2c : ~I2cPort</text><rect class="pt cj" x="-5" y="28" width="10" height="10" tabindex="0" role="button" rx="3" aria-label="conjugated port ^supply" data-port="SystemHardware::displayHw::supply" data-side="w" data-dir="in" data-px="1100" data-py="473"/><path class="pd" d="M-3,30 L3,33 L-3,36"/><text class="ft" x="-196" y="74" text-anchor="end" data-port="SystemHardware::displayHw::supply" data-px="1100" data-py="473">^supply : ~PowerPort</text><rect class="pt" x="179" y="20" width="10" height="10" tabindex="0" role="button" rx="3" aria-label="port ^screen" data-port="SystemHardware::displayHw::screen" data-side="e" data-dir="out" data-px="1284" data-py="465"/><path class="pd" d="M181,22 L187,25 L181,28"/><text class="ft" x="193" y="41" text-anchor="start" data-port="SystemHardware::displayHw::screen" data-px="1284" data-py="465">^screen : ScreenPort</text></g><g class="nd" tabindex="0" role="button" aria-pressed="false" aria-label="part powerHw" data-el="SystemHardware::powerHw" data-x="340" data-y="480" data-w="156" data-h="49" data-plain="1" transform="translate(340,480)"><rect class="bx" width="156" height="49" rx="10"/><rect class="hd" x="1" y="1" width="154" height="33" rx="1"/><text class="kk kw" x="78" y="11.5" text-anchor="middle">«part»</text><text class="nn bd" x="78" y="27" text-anchor="middle">powerHw : PowerHw</text><rect class="pt cj" x="-5" y="20" width="10" height="10" tabindex="0" role="button" rx="3" aria-label="conjugated port ^mains" data-port="SystemHardware::powerHw::mains" data-side="w" data-dir="in" data-px="340" data-py="505"/><path class="pd" d="M-3,22 L3,25 L-3,28"/><text class="ft" x="-9" y="41" text-anchor="end" data-port="SystemHardware::powerHw::mains" data-px="340" data-py="505">^mains : ~PowerPort</text><rect class="pt" x="151" y="11" width="10" height="10" tabindex="0" role="button" rx="3" aria-label="port ^supply" data-port="SystemHardware::powerHw::supply" data-side="e" data-dir="out" data-px="496" data-py="496"/><path class="pd" d="M153,13 L159,16 L153,19"/><text class="ft" x="229" y="50" text-anchor="start" data-port="SystemHardware::powerHw::supply" data-px="496" data-py="496">^supply : PowerPort</text><rect class="pt cj" x="151" y="28" width="10" height="10" tabindex="0" role="button" rx="3" aria-label="conjugated port ^mainsSense" data-port="SystemHardware::powerHw::mainsSense" data-side="e" data-dir="out" data-px="496" data-py="513"/><path class="pd" d="M153,30 L159,33 L153,36"/><text class="ft" x="248.5" y="83" text-anchor="start" data-port="SystemHardware::powerHw::mainsSense" data-px="496" data-py="513">^mainsSense : ~GpioInPort</text></g><g class="nd" tabindex="0" role="button" aria-pressed="false" aria-label="part fridge" data-el="SystemHardware::fridge" data-x="20" data-y="40" data-w="150" data-h="49" data-plain="1" transform="translate(20,40)"><rect class="bx" width="150" height="49" rx="10"/><rect class="hd" x="1" y="1" width="148" height="33" rx="1"/><text class="kk kw" x="75" y="11.5" text-anchor="middle">«part»</text><text class="nn bd" x="75" y="27" text-anchor="middle">fridge : Fridge</text><rect class="pt" x="145" y="20" width="10" height="10" tabindex="0" role="button" rx="3" aria-label="port ^air" data-port="SystemHardware::fridge::air" data-side="e" data-dir="out" data-px="170" data-py="65"/><path class="pd" d="M147,22 L153,25 L147,28"/><text class="ft" x="155" y="20" text-anchor="start" data-port="SystemHardware::fridge::air" data-px="170" data-py="65">^air : ThermalPort</text></g><g class="nd" tabindex="0" role="button" aria-pressed="false" aria-label="part mains" data-el="SystemHardware::mains" data-x="20" data-y="480" data-w="168" data-h="49" data-plain="1" transform="translate(20,480)"><rect class="bx" width="168" height="49" rx="10"/><rect class="hd" x="1" y="1" width="166" height="33" rx="1"/><text class="kk kw" x="84" y="11.5" text-anchor="middle">«part»</text><text class="nn bd" x="84" y="27" text-anchor="middle">mains : MainsSupply</text><rect class="pt" x="163" y="20" width="10" height="10" tabindex="0" role="button" rx="3" aria-label="port ^output" data-port="SystemHardware::mains::output" data-side="e" data-dir="out" data-px="188" data-py="505"/><path class="pd" d="M165,22 L171,25 L165,28"/><text class="ft" x="173" y="20" text-anchor="start" data-port="SystemHardware::mains::output" data-px="188" data-py="505">^output : PowerPort</text></g><g class="nd" tabindex="0" role="button" aria-pressed="false" aria-label="part staff" data-el="SystemHardware::staff" data-x="1480" data-y="260" data-w="150" data-h="49" data-plain="1" transform="translate(1480,260)"><rect class="bx" width="150" height="49" rx="10"/><rect class="hd" x="1" y="1" width="148" height="33" rx="1"/><text class="kk kw" x="75" y="11.5" text-anchor="middle">«part»</text><text class="nn bd" x="75" y="27" text-anchor="middle">staff : Staff</text><rect class="pt cj" x="-5" y="11" width="10" height="10" tabindex="0" role="button" rx="3" aria-label="conjugated port ^alarmSignals" data-port="SystemHardware::staff::alarmSignals" data-side="w" data-dir="inout" data-px="1480" data-py="276"/><path class="pd" d="M3,13 L-3,16 L3,19"/><path class="pd" d="M-3,13 L3,16 L-3,19"/><text class="ft" x="-46" y="16" text-anchor="end" data-port="SystemHardware::staff::alarmSignals" data-px="1480" data-py="276">^alarmSignals : ~AlarmHmiPort</text><rect class="pt cj" x="-5" y="28" width="10" height="10" tabindex="0" role="button" rx="3" aria-label="conjugated port ^screen" data-port="SystemHardware::staff::screen" data-side="w" data-dir="in" data-px="1480" data-py="293"/><path class="pd" d="M-3,30 L3,33 L-3,36"/><text class="ft" x="-9" y="49" text-anchor="end" data-port="SystemHardware::staff::screen" data-px="1480" data-py="293">^screen : ~ScreenPort</text></g><path class="ed" d="M175,65 L335,65" data-el="SystemHardware::fridge::air" data-edge="SystemHardware::sensorHw::air&gt;interface" data-from="SystemHardware::fridge::air" data-to="SystemHardware::sensorHw::air" /><text class="edl" x="225.5" y="106" text-anchor="middle" data-word="SystemHardware::fridge::air|SystemHardware::sensorHw::air&gt;interface"><tspan x="225.5">airContact :</tspan><tspan x="225.5" dy="13">ThermalContact</tspan></text><path class="ed" d="M695,270 L543.5,270 Q537.5,270 537.5,264 L537.5,71 Q537.5,65 531.5,65 L513,65" data-el="SystemHardware::controllerHw::probeBus" data-edge="SystemHardware::sensorHw::bus&gt;interface" data-from="SystemHardware::controllerHw::probeBus" data-to="SystemHardware::sensorHw::bus" /><text class="edl" x="463.5" y="270" text-anchor="middle" data-word="SystemHardware::controllerHw::probeBus|SystemHardware::sensorHw::bus&gt;interface">probeBus : ProbeBus</text><path class="ed" d="M933,267 L976,267 Q982,267 982,273 L982,295 Q982,301 988,301 L991.5,301 Q995,301 995,304.5 L995,305 Q995,308 992,308 L992,308 Q989,308 989,311 L989,450 Q989,456 995,456 L1095,456" data-el="SystemHardware::controllerHw::i2c" data-edge="SystemHardware::displayHw::i2c&gt;interface" data-from="SystemHardware::controllerHw::i2c" data-to="SystemHardware::displayHw::i2c" /><path class="rule" d="M918,309 L933,267" stroke-dasharray="2 3" data-leader="SystemHardware::controllerHw::i2c|SystemHardware::displayHw::i2c&gt;interface"/><text class="edl" x="915.5" y="321" text-anchor="middle" data-word="SystemHardware::controllerHw::i2c|SystemHardware::displayHw::i2c&gt;interface">displayBus : I2cBus</text><path class="ed" d="M933,274 L1114,274 Q1120,274 1120,268 L1120,167 Q1120,161 1114,161 L1089,161 Q1083,161 1083,155 L1083,113 Q1083,107 1089,107 L1095,107" data-el="SystemHardware::controllerHw::buzzerDrive" data-edge="SystemHardware::alarmHw::buzzerDrive&gt;interface" data-from="SystemHardware::controllerHw::buzzerDrive" data-to="SystemHardware::alarmHw::buzzerDrive" /><path class="rule" d="M913.5,459.5 L933,274" stroke-dasharray="2 3" data-leader="SystemHardware::controllerHw::buzzerDrive|SystemHardware::alarmHw::buzzerDrive&gt;interface"/><text class="edl" x="912.5" y="471.5" text-anchor="middle" data-word="SystemHardware::controllerHw::buzzerDrive|SystemHardware::alarmHw::buzzerDrive&gt;interface">buzzerLine : SignalLine</text><path class="ed" d="M933,281 L1120,281 Q1126,281 1126,275 L1126,173 Q1126,167 1120,167 L1083,167 Q1077,167 1077,161 L1077,120 Q1077,114 1083,114 L1095,114" data-el="SystemHardware::controllerHw::redLed" data-edge="SystemHardware::alarmHw::redLed&gt;interface" data-from="SystemHardware::controllerHw::redLed" data-to="SystemHardware::alarmHw::redLed" /><path class="rule" d="M1268,338 L1126,281" stroke-dasharray="2 3" data-leader="SystemHardware::controllerHw::redLed|SystemHardware::alarmHw::redLed&gt;interface"/><text class="edl" x="1286.5" y="350" text-anchor="middle" data-word="SystemHardware::controllerHw::redLed|SystemHardware::alarmHw::redLed&gt;interface">ledLine : SignalLine</text><path class="ed" d="M933,288 L1126,288 Q1132,288 1132,282 L1132,160 Q1132,154 1126,154 L1101,154 Q1095,154 1095,148 L1095,133.5 Q1095,131 1092.5,131 L1092.5,131 Q1090,131 1090,128.5 L1090,123.5 Q1090,121 1092.5,121 L1095,121" data-el="SystemHardware::controllerHw::wdtPulse" data-edge="SystemHardware::alarmHw::wdtPulse&gt;interface" data-from="SystemHardware::controllerHw::wdtPulse" data-to="SystemHardware::alarmHw::wdtPulse" /><path class="rule" d="M1191.5,371 L1132,288" stroke-dasharray="2 3" data-leader="SystemHardware::controllerHw::wdtPulse|SystemHardware::alarmHw::wdtPulse&gt;interface"/><text class="edl" x="1197" y="383" text-anchor="middle" data-word="SystemHardware::controllerHw::wdtPulse|SystemHardware::alarmHw::wdtPulse&gt;interface">watchdogLine : SignalLine</text><path class="ed" d="M933,295 L996,295 Q1002,295 1002,301 L1002,356 Q1002,362 1008,362 L1196.5,362 Q1202.5,362 1202.5,356 L1202.5,191 Q1202.5,185 1196.5,185 L1065,185 Q1059,185 1059,179 L1059,134 Q1059,128 1065,128 L1095,128" data-el="SystemHardware::controllerHw::ack" data-edge="SystemHardware::alarmHw::ack&gt;interface" data-from="SystemHardware::controllerHw::ack" data-to="SystemHardware::alarmHw::ack" /><text class="edl" x="1142.5" y="402.5" text-anchor="middle" data-word="SystemHardware::controllerHw::ack|SystemHardware::alarmHw::ack&gt;interface">ackLine : ButtonLine</text><path class="ed" d="M933,302 L989,302 Q995,302 995,308 L995,363 Q995,369 1001,369 L1203.5,369 Q1209.5,369 1209.5,363 L1209.5,173 Q1209.5,167 1203.5,167 L1144,167 Q1138,167 1138,173 L1138,173 Q1138,179 1132,179 L1071,179 Q1065,179 1065,173 L1065,141 Q1065,135 1071,135 L1095,135" data-el="SystemHardware::controllerHw::buzzerSense" data-edge="SystemHardware::alarmHw::buzzerSense&gt;interface" data-from="SystemHardware::controllerHw::buzzerSense" data-to="SystemHardware::alarmHw::buzzerSense" /><path class="rule" d="M1156,410.5 L1156,369" stroke-dasharray="2 3" data-leader="SystemHardware::controllerHw::buzzerSense|SystemHardware::alarmHw::buzzerSense&gt;interface"/><text class="edl" x="1156" y="422.5" text-anchor="middle" data-word="SystemHardware::controllerHw::buzzerSense|SystemHardware::alarmHw::buzzerSense&gt;interface">currentSense : SenseLine</text><path class="ed" d="M695,280 L661.5,280 Q655.5,280 655.5,286 L655.5,507 Q655.5,513 649.5,513 L501,513" data-el="SystemHardware::controllerHw::mainsSense" data-edge="SystemHardware::powerHw::mainsSense&gt;interface" data-from="SystemHardware::controllerHw::mainsSense" data-to="SystemHardware::powerHw::mainsSense" /><text class="edl" x="571" y="365" text-anchor="middle" data-word="SystemHardware::controllerHw::mainsSense|SystemHardware::powerHw::mainsSense&gt;interface">mainsSense : SenseLine</text><path class="ed" d="M193,505 L335,505" data-el="SystemHardware::mains::output" data-edge="SystemHardware::powerHw::mains&gt;interface" data-from="SystemHardware::mains::output" data-to="SystemHardware::powerHw::mains" /><text class="edl" x="233" y="461" text-anchor="middle" data-word="SystemHardware::mains::output|SystemHardware::powerHw::mains&gt;interface"><tspan x="233">mainsFeed :</tspan><tspan x="233" dy="13">PowerFeed</tspan></text><path class="ed" d="M501,496 L655.5,496 Q661.5,496 661.5,490 L661.5,305 Q661.5,299 667.5,299 L695,299" data-el="SystemHardware::powerHw::supply" data-edge="SystemHardware::controllerHw::supply&gt;interface" data-from="SystemHardware::powerHw::supply" data-to="SystemHardware::controllerHw::supply" /><text class="edl" x="429" y="460" text-anchor="middle" data-word="SystemHardware::powerHw::supply|SystemHardware::controllerHw::supply&gt;interface">boardFeed : PowerFeed</text><path class="ed" d="M501,496 L792,496 Q798,496 798,490 L798,148 Q798,142 804,142 L1095,142" data-el="SystemHardware::powerHw::supply" data-edge="SystemHardware::alarmHw::supply&gt;interface" data-from="SystemHardware::powerHw::supply" data-to="SystemHardware::alarmHw::supply" data-routed="fallback" /><text class="edl" x="704" y="225" text-anchor="middle" data-word="SystemHardware::powerHw::supply|SystemHardware::alarmHw::supply&gt;interface">alarmFeed : PowerFeed</text><path class="ed" d="M501,496 L1037,496 Q1043,496 1043,490 L1043,479 Q1043,473 1049,473 L1095,473" data-el="SystemHardware::powerHw::supply" data-edge="SystemHardware::displayHw::supply&gt;interface" data-from="SystemHardware::powerHw::supply" data-to="SystemHardware::displayHw::supply" /><path class="rule" d="M1226.5,526.5 L1095,473" stroke-dasharray="2 3" data-leader="SystemHardware::powerHw::supply|SystemHardware::displayHw::supply&gt;interface"/><text class="edl" x="1245" y="538.5" text-anchor="middle" data-word="SystemHardware::powerHw::supply|SystemHardware::displayHw::supply&gt;interface">displayFeed : PowerFeed</text><path class="ed" d="M1261,125 L1433,125 Q1439,125 1439,131 L1439,270 Q1439,276 1445,276 L1475,276" data-el="SystemHardware::alarmHw::alarmSignals" data-edge="SystemHardware::staff::alarmSignals&gt;connect" data-from="SystemHardware::alarmHw::alarmSignals" data-to="SystemHardware::staff::alarmSignals" /><path class="ed" d="M1289,465 L1439,465 Q1445,465 1445,459 L1445,299 Q1445,293 1451,293 L1475,293" data-el="SystemHardware::displayHw::screen" data-edge="SystemHardware::staff::screen&gt;connect" data-from="SystemHardware::displayHw::screen" data-to="SystemHardware::staff::screen" /></g></svg>