<svg class="pic cls dcl" id="pic" xmlns="http://www.w3.org/2000/svg"><defs><marker id="ar" viewBox="0 0 10 10" refX="9.5" refY="5" markerWidth="9" markerHeight="9" orient="auto-start-reverse"><path d="M0,1 L10,5 L0,9" fill="none" stroke="context-stroke" stroke-width="1.111"/></marker><marker id="tri" viewBox="0 0 12 12" refX="11" refY="6" markerWidth="10.8" markerHeight="10.8" orient="auto-start-reverse"><path d="M0,0.5 L11,6 L0,11.5 Z" fill="var(--panel)" stroke="context-stroke" stroke-width="1.111"/></marker><marker id="far" viewBox="0 0 10 10" refX="9.5" refY="5" markerWidth="9" markerHeight="9" orient="auto-start-reverse"><path d="M0,1 L10,5 L0,9 Z" fill="context-stroke" stroke="context-stroke" stroke-width="1.111" stroke-linejoin="round"/></marker><marker id="trid" viewBox="0 0 16 12" refX="15" refY="6" markerWidth="14.4" markerHeight="10.8" orient="auto-start-reverse"><path d="M4,0.5 L15,6 L4,11.5 Z" fill="var(--panel)" stroke="context-stroke" stroke-width="1.111"/><circle cx="1.8" cy="3.4" r="1.1" fill="context-stroke"/><circle cx="1.8" cy="8.6" r="1.1" fill="context-stroke"/></marker><marker id="trib" viewBox="0 0 14 12" refX="13" refY="6" markerWidth="12.6" markerHeight="10.8" orient="auto-start-reverse"><path d="M3,0.5 L13,6 L3,11.5 Z" fill="var(--panel)" stroke="context-stroke" stroke-width="1.111"/><path d="M1.3,0.8 V11.2" fill="none" stroke="context-stroke" stroke-width="1.111"/></marker><marker id="dia" viewBox="0 0 14 10" refX="13" refY="5" markerWidth="12.6" markerHeight="9" orient="auto-start-reverse"><path d="M0,5 L6,1 L13,5 L6,9 Z" fill="context-stroke" stroke="context-stroke" stroke-width="1.111"/></marker><marker id="odia" viewBox="0 0 14 10" refX="13" refY="5" markerWidth="12.6" markerHeight="9" orient="auto-start-reverse"><path d="M0,5 L6,1 L13,5 L6,9 Z" fill="var(--panel)" stroke="context-stroke" stroke-width="1.111"/></marker><marker id="por" viewBox="0 0 14 14" refX="13.5" refY="7" markerWidth="12.6" markerHeight="12.6" orient="auto-start-reverse"><path d="M8,7 L3.79,3.46 A5.5,5.5 0 1 1 3.79,10.54 Z" fill="context-stroke" stroke="context-stroke" stroke-width="1.111"/></marker></defs><g id="zoom"><rect class="fr" x="0" y="0" width="964" height="469" rx="10"/><rect class="frt" x="0" y="0" width="472" height="18" rx="2"/><text class="frn" x="8" y="12.5">«view» system_software : StandardViewDefinitions::InterconnectionView</text><g class="nd" tabindex="0" role="button" aria-pressed="false" aria-label="part alarmSw" data-el="SystemSoftware::alarmSw" data-x="380" data-y="40" data-w="156" data-h="49" data-plain="1" transform="translate(380,40)"><rect class="bx" width="156" height="49" rx="10"/><rect class="hd" x="1" y="1" width="154" height="33" rx="1"/><text class="kk kw" x="78" y="11.5" text-anchor="middle">«part»</text><text class="nn bd" x="78" y="27" text-anchor="middle">alarmSw : AlarmSw</text><rect class="pt" x="151" y="11" width="10" height="10" tabindex="0" role="button" rx="3" aria-label="port ^samples" data-port="SystemSoftware::alarmSw::samples" data-side="e" data-dir="out" data-px="536" data-py="56"/><path class="pd" d="M153,13 L159,16 L153,19"/><text class="ft" x="235" y="50" text-anchor="start" data-port="SystemSoftware::alarmSw::samples" data-px="536" data-py="56">^samples : SampleFlow</text><rect class="pt" x="151" y="28" width="10" height="10" tabindex="0" role="button" rx="3" aria-label="port ^alarmState" data-port="SystemSoftware::alarmSw::alarmState" data-side="e" data-dir="out" data-px="536" data-py="73"/><path class="pd" d="M153,30 L159,33 L153,36"/><text class="ft" x="258.5" y="83" text-anchor="start" data-port="SystemSoftware::alarmSw::alarmState" data-px="536" data-py="73">^alarmState : AlarmStateFlow</text><rect class="pt" x="73" y="44" width="10" height="10" tabindex="0" role="button" rx="3" aria-label="port ^records" data-port="SystemSoftware::alarmSw::records" data-side="s" data-dir="out" data-px="458" data-py="89"/><path class="pd" d="M75,46 L78,52 L81,46"/><text class="ft" x="69" y="65" text-anchor="end" data-port="SystemSoftware::alarmSw::records" data-px="458" data-py="89">^records : RecordFlow</text><rect class="pt" x="-5" y="7" width="10" height="10" tabindex="0" role="button" rx="3" aria-label="port ^heartbeat" data-port="SystemSoftware::alarmSw::heartbeat" data-side="w" data-dir="out" data-px="380" data-py="52"/><path class="pd" d="M3,9 L-3,12 L3,15"/><text class="ft" x="-104.5" y="63" text-anchor="end" data-port="SystemSoftware::alarmSw::heartbeat" data-px="380" data-py="52">^heartbeat : HeartbeatFlow</text><rect class="pt cj" x="-5" y="20" width="10" height="10" tabindex="0" role="button" rx="3" aria-label="conjugated port ^band" data-port="SystemSoftware::alarmSw::band" data-side="w" data-dir="in" data-px="380" data-py="65"/><path class="pd" d="M-3,22 L3,25 L-3,28"/><text class="ft" x="-89" y="83" text-anchor="end" data-port="SystemSoftware::alarmSw::band" data-px="380" data-py="65">^band : ~BandFlow</text><rect class="pt cj" x="-5" y="32" width="10" height="10" tabindex="0" role="button" rx="3" aria-label="conjugated port ^powerEvents" data-port="SystemSoftware::alarmSw::powerEvents" data-side="w" data-dir="in" data-px="380" data-py="77"/><path class="pd" d="M-3,34 L3,37 L-3,40"/><path class="rule" d="M-190.5,150 L-190.5,234" stroke-dasharray="2 3" data-pinleader="SystemSoftware::alarmSw::powerEvents"/><text class="ft" x="-90.5" y="147" text-anchor="end" data-port="SystemSoftware::alarmSw::powerEvents" data-px="380" data-py="77">^powerEvents : ~PowerEventFlow</text></g><g class="nd" tabindex="0" role="button" aria-pressed="false" aria-label="part platformSw" data-el="SystemSoftware::platformSw" data-x="20" data-y="220" data-w="196" data-h="49" data-plain="1" transform="translate(20,220)"><rect class="bx" width="196" height="49" rx="10"/><rect class="hd" x="1" y="1" width="194" height="33" rx="1"/><text class="kk kw" x="98" y="11.5" text-anchor="middle">«part»</text><text class="nn bd" x="98" y="27" text-anchor="middle">platformSw : PlatformSw</text><rect class="pt cj" x="191" y="5" width="10" height="10" tabindex="0" role="button" rx="3" aria-label="conjugated port ^heartbeat" data-port="SystemSoftware::platformSw::heartbeat" data-side="e" data-dir="in" data-px="216" data-py="230"/><path class="pd" d="M199,7 L193,10 L199,13"/><path class="rule" d="M336.5,86 L213,10" stroke-dasharray="2 3" data-pinleader="SystemSoftware::platformSw::heartbeat"/><text class="ft" x="258.5" y="98" text-anchor="start" data-port="SystemSoftware::platformSw::heartbeat" data-px="216" data-py="230">^heartbeat : ~HeartbeatFlow</text><rect class="pt" x="191" y="15" width="10" height="10" tabindex="0" role="button" rx="3" aria-label="port ^band" data-port="SystemSoftware::platformSw::band" data-side="e" data-dir="out" data-px="216" data-py="240"/><path class="pd" d="M193,17 L199,20 L193,23"/><text class="ft" x="281" y="20" text-anchor="start" data-port="SystemSoftware::platformSw::band" data-px="216" data-py="240">^band : BandFlow</text><rect class="pt" x="191" y="24" width="10" height="10" tabindex="0" role="button" rx="3" aria-label="port ^powerEvents" data-port="SystemSoftware::platformSw::powerEvents" data-side="e" data-dir="out" data-px="216" data-py="249"/><path class="pd" d="M193,26 L199,29 L193,32"/><path class="rule" d="M330,105 L206,54" stroke-dasharray="2 3" data-pinleader="SystemSoftware::platformSw::powerEvents"/><text class="ft" x="252" y="117" text-anchor="start" data-port="SystemSoftware::platformSw::powerEvents" data-px="216" data-py="249">^powerEvents : PowerEventFlow</text><rect class="pt" x="191" y="34" width="10" height="10" tabindex="0" role="button" rx="3" aria-label="port ^records" data-port="SystemSoftware::platformSw::records" data-side="e" data-dir="out" data-px="216" data-py="259"/><path class="pd" d="M193,36 L199,39 L193,42"/><text class="ft" x="251.5" y="139" text-anchor="start" data-port="SystemSoftware::platformSw::records" data-px="216" data-py="259">^records : RecordFlow</text></g><g class="nd" tabindex="0" role="button" aria-pressed="false" aria-label="part displaySw" data-el="SystemSoftware::displaySw" data-x="760" data-y="40" data-w="184" data-h="49" data-plain="1" transform="translate(760,40)"><rect class="bx" width="184" height="49" rx="10"/><rect class="hd" x="1" y="1" width="182" height="33" rx="1"/><text class="kk kw" x="92" y="11.5" text-anchor="middle">«part»</text><text class="nn bd" x="92" y="27" text-anchor="middle">displaySw : DisplaySw</text><rect class="pt cj" x="-5" y="11" width="10" height="10" tabindex="0" role="button" rx="3" aria-label="conjugated port ^samples" data-port="SystemSoftware::displaySw::samples" data-side="w" data-dir="in" data-px="760" data-py="56"/><path class="pd" d="M-3,13 L3,16 L-3,19"/><path class="rule" d="M-156,102 L-156,16" stroke-dasharray="2 3" data-pinleader="SystemSoftware::displaySw::samples"/><text class="ft" x="-82.5" y="114" text-anchor="end" data-port="SystemSoftware::displaySw::samples" data-px="760" data-py="56">^samples : ~SampleFlow</text><rect class="pt cj" x="-5" y="28" width="10" height="10" tabindex="0" role="button" rx="3" aria-label="conjugated port ^alarmState" data-port="SystemSoftware::displaySw::alarmState" data-side="w" data-dir="in" data-px="760" data-py="73"/><path class="pd" d="M-3,30 L3,33 L-3,36"/><path class="rule" d="M-99,192.5 L-99,33" stroke-dasharray="2 3" data-pinleader="SystemSoftware::displaySw::alarmState"/><text class="ft" x="-2.5" y="204.5" text-anchor="end" data-port="SystemSoftware::displaySw::alarmState" data-px="760" data-py="73">^alarmState : ~AlarmStateFlow</text></g><g class="nd" tabindex="0" role="button" aria-pressed="false" aria-label="part recordSw" data-el="SystemSoftware::recordSw" data-x="380" data-y="400" data-w="168" data-h="49" data-plain="1" transform="translate(380,400)"><rect class="bx" width="168" height="49" rx="10"/><rect class="hd" x="1" y="1" width="166" height="33" rx="1"/><text class="kk kw" x="84" y="11.5" text-anchor="middle">«part»</text><text class="nn bd" x="84" y="27" text-anchor="middle">recordSw : RecordSw</text><rect class="pt cj" x="79" y="-5" width="10" height="10" tabindex="0" role="button" rx="3" aria-label="conjugated port ^records" data-port="SystemSoftware::recordSw::records" data-side="n" data-dir="in" data-px="464" data-py="400"/><path class="pd" d="M81,-3 L84,3 L87,-3"/><text class="ft" x="75" y="-10" text-anchor="end" data-port="SystemSoftware::recordSw::records" data-px="464" data-py="400">^records : ~RecordFlow</text><rect class="pt" x="163" y="20" width="10" height="10" tabindex="0" role="button" rx="3" aria-label="port ^history" data-port="SystemSoftware::recordSw::history" data-side="e" data-dir="out" data-px="548" data-py="425"/><path class="pd" d="M165,22 L171,25 L165,28"/><text class="ft" x="177" y="41" text-anchor="start" data-port="SystemSoftware::recordSw::history" data-px="548" data-py="425">^history : HistoryFlow</text></g><g class="nd" tabindex="0" role="button" aria-pressed="false" aria-label="part exportSw" data-el="SystemSoftware::exportSw" data-x="760" data-y="400" data-w="168" data-h="49" data-plain="1" transform="translate(760,400)"><rect class="bx" width="168" height="49" rx="10"/><rect class="hd" x="1" y="1" width="166" height="33" rx="1"/><text class="kk kw" x="84" y="11.5" text-anchor="middle">«part»</text><text class="nn bd" x="84" y="27" text-anchor="middle">exportSw : ExportSw</text><rect class="pt cj" x="-5" y="20" width="10" height="10" tabindex="0" role="button" rx="3" aria-label="conjugated port ^history" data-port="SystemSoftware::exportSw::history" data-side="w" data-dir="in" data-px="760" data-py="425"/><path class="pd" d="M-3,22 L3,25 L-3,28"/><text class="ft" x="-5" y="20" text-anchor="end" data-port="SystemSoftware::exportSw::history" data-px="760" data-py="425">^history : ~HistoryFlow</text></g><path class="ed" d="M541,56 L755,56" data-el="SystemSoftware::alarmSw::samples" data-edge="SystemSoftware::displaySw::samples&gt;connect" data-from="SystemSoftware::alarmSw::samples" data-to="SystemSoftware::displaySw::samples" /><path class="ed" d="M541,73 L755,73" data-el="SystemSoftware::alarmSw::alarmState" data-edge="SystemSoftware::displaySw::alarmState&gt;connect" data-from="SystemSoftware::alarmSw::alarmState" data-to="SystemSoftware::displaySw::alarmState" /><path class="ed" d="M458,94 L458,139.5 Q458,144 453.5,144 L453.5,144 Q449,144 449,148.5 L449,266 Q449,272 455,272 L521,272 Q527,272 527,278 L527,355 Q527,361 521,361 L470,361 Q464,361 464,367 L464,395" data-el="SystemSoftware::alarmSw::records" data-edge="SystemSoftware::recordSw::records&gt;connect" data-from="SystemSoftware::alarmSw::records" data-to="SystemSoftware::recordSw::records" /><path class="ed" d="M221,259 L260.5,259 Q266.5,259 266.5,265 L266.5,355 Q266.5,361 272.5,361 L458,361 Q464,361 464,367 L464,395" data-el="SystemSoftware::platformSw::records" data-edge="SystemSoftware::recordSw::records&gt;connect" data-from="SystemSoftware::platformSw::records" data-to="SystemSoftware::recordSw::records" /><path class="ed" d="M375,52 L65,52 Q59,52 59,58 L59,202 Q59,208 65,208 L227,208 Q233,208 233,214 L233,224 Q233,230 227,230 L221,230" data-el="SystemSoftware::alarmSw::heartbeat" data-edge="SystemSoftware::platformSw::heartbeat&gt;connect" data-from="SystemSoftware::alarmSw::heartbeat" data-to="SystemSoftware::platformSw::heartbeat" /><path class="ed" d="M221,240 L290,240 Q296,240 296,234 L296,71 Q296,65 302,65 L375,65" data-el="SystemSoftware::platformSw::band" data-edge="SystemSoftware::alarmSw::band&gt;connect" data-from="SystemSoftware::platformSw::band" data-to="SystemSoftware::alarmSw::band" /><path class="ed" d="M221,249 L223.5,249 Q226,249 226,251.5 L226,268 Q226,274 220,274 L21,274 Q15,274 15,268 L15,52 Q15,46 21,46 L186,46 Q192,46 192,52 L192,71 Q192,77 198,77 L375,77" data-el="SystemSoftware::platformSw::powerEvents" data-edge="SystemSoftware::alarmSw::powerEvents&gt;connect" data-from="SystemSoftware::platformSw::powerEvents" data-to="SystemSoftware::alarmSw::powerEvents" /><path class="ed" d="M553,425 L755,425" data-el="SystemSoftware::recordSw::history" data-edge="SystemSoftware::exportSw::history&gt;connect" data-from="SystemSoftware::recordSw::history" data-to="SystemSoftware::exportSw::history" /></g></svg>