<svg class="pic cls dcl" id="pic" xmlns="http://www.w3.org/2000/svg"><defs><marker id="ar" viewBox="0 0 10 10" refX="9.5" refY="5" markerWidth="9" markerHeight="9" orient="auto-start-reverse"><path d="M0,1 L10,5 L0,9" fill="none" stroke="context-stroke" stroke-width="1.111"/></marker><marker id="tri" viewBox="0 0 12 12" refX="11" refY="6" markerWidth="10.8" markerHeight="10.8" orient="auto-start-reverse"><path d="M0,0.5 L11,6 L0,11.5 Z" fill="var(--panel)" stroke="context-stroke" stroke-width="1.111"/></marker><marker id="far" viewBox="0 0 10 10" refX="9.5" refY="5" markerWidth="9" markerHeight="9" orient="auto-start-reverse"><path d="M0,1 L10,5 L0,9 Z" fill="context-stroke" stroke="context-stroke" stroke-width="1.111" stroke-linejoin="round"/></marker><marker id="trid" viewBox="0 0 16 12" refX="15" refY="6" markerWidth="14.4" markerHeight="10.8" orient="auto-start-reverse"><path d="M4,0.5 L15,6 L4,11.5 Z" fill="var(--panel)" stroke="context-stroke" stroke-width="1.111"/><circle cx="1.8" cy="3.4" r="1.1" fill="context-stroke"/><circle cx="1.8" cy="8.6" r="1.1" fill="context-stroke"/></marker><marker id="trib" viewBox="0 0 14 12" refX="13" refY="6" markerWidth="12.6" markerHeight="10.8" orient="auto-start-reverse"><path d="M3,0.5 L13,6 L3,11.5 Z" fill="var(--panel)" stroke="context-stroke" stroke-width="1.111"/><path d="M1.3,0.8 V11.2" fill="none" stroke="context-stroke" stroke-width="1.111"/></marker><marker id="dia" viewBox="0 0 14 10" refX="13" refY="5" markerWidth="12.6" markerHeight="9" orient="auto-start-reverse"><path d="M0,5 L6,1 L13,5 L6,9 Z" fill="context-stroke" stroke="context-stroke" stroke-width="1.111"/></marker><marker id="odia" viewBox="0 0 14 10" refX="13" refY="5" markerWidth="12.6" markerHeight="9" orient="auto-start-reverse"><path d="M0,5 L6,1 L13,5 L6,9 Z" fill="var(--panel)" stroke="context-stroke" stroke-width="1.111"/></marker><marker id="por" viewBox="0 0 14 14" refX="13.5" refY="7" markerWidth="12.6" markerHeight="12.6" orient="auto-start-reverse"><path d="M8,7 L3.79,3.46 A5.5,5.5 0 1 1 3.79,10.54 Z" fill="context-stroke" stroke="context-stroke" stroke-width="1.111"/></marker></defs><g id="zoom"><rect class="fr" x="0" y="0" width="1150" height="369" rx="10"/><rect class="frt" x="0" y="0" width="617" height="18" rx="2"/><text class="frn" x="8" y="12.5">«view» backup_alarm_whitebox_interconnection : StandardViewDefinitions::InterconnectionView</text><g class="nd" tabindex="0" role="button" aria-pressed="false" aria-label="part timer" data-el="NodeBackupAlarmWhiteBox::timer" data-x="340" data-y="40" data-w="168" data-h="49" data-plain="1" transform="translate(340,40)"><rect class="bx" width="168" height="49" rx="10"/><rect class="hd" x="1" y="1" width="166" height="33" rx="1"/><text class="kk kw" x="84" y="11.5" text-anchor="middle">«part»</text><text class="nn bd" x="84" y="27" text-anchor="middle">timer : BackupTimer</text><rect class="pt cj" x="-5" y="20" width="10" height="10" tabindex="0" role="button" rx="3" aria-label="conjugated port ^kick" data-port="NodeBackupAlarmWhiteBox::timer::kick" data-side="w" data-dir="in" data-px="340" data-py="65"/><path class="pd" d="M-3,22 L3,25 L-3,28"/><text class="ft" x="-9" y="41" text-anchor="end" data-port="NodeBackupAlarmWhiteBox::timer::kick" data-px="340" data-py="65">^kick : ~GpioOutPort</text><rect class="pt" x="163" y="20" width="10" height="10" tabindex="0" role="button" rx="3" aria-label="port ^alarmOut" data-port="NodeBackupAlarmWhiteBox::timer::alarmOut" data-side="e" data-dir="out" data-px="508" data-py="65"/><path class="pd" d="M165,22 L171,25 L165,28"/><text class="ft" x="254" y="75" text-anchor="start" data-port="NodeBackupAlarmWhiteBox::timer::alarmOut" data-px="508" data-py="65">^alarmOut : GpioOutPort</text><rect class="pt cj" x="79" y="44" width="10" height="10" tabindex="0" role="button" rx="3" aria-label="conjugated port ^holdUp" data-port="NodeBackupAlarmWhiteBox::timer::holdUp" data-side="s" data-dir="in" data-px="424" data-py="89"/><path class="pd" d="M81,52 L84,46 L87,52"/><text class="ft" x="75" y="65" text-anchor="end" data-port="NodeBackupAlarmWhiteBox::timer::holdUp" data-px="424" data-py="89">^holdUp : ~PowerPort</text></g><g class="nd" tabindex="0" role="button" aria-pressed="false" aria-label="part driver" data-el="NodeBackupAlarmWhiteBox::driver" data-x="660" data-y="40" data-w="184" data-h="49" data-plain="1" transform="translate(660,40)"><rect class="bx" width="184" height="49" rx="10"/><rect class="hd" x="1" y="1" width="182" height="33" rx="1"/><text class="kk kw" x="92" y="11.5" text-anchor="middle">«part»</text><text class="nn bd" x="92" y="27" text-anchor="middle">driver : BackupDriver</text><rect class="pt cj" x="-5" y="20" width="10" height="10" tabindex="0" role="button" rx="3" aria-label="conjugated port ^input" data-port="NodeBackupAlarmWhiteBox::driver::input" data-side="w" data-dir="in" data-px="660" data-py="65"/><path class="pd" d="M-3,22 L3,25 L-3,28"/><text class="ft" x="-9" y="41" text-anchor="end" data-port="NodeBackupAlarmWhiteBox::driver::input" data-px="660" data-py="65">^input : ~GpioOutPort</text><rect class="pt" x="179" y="20" width="10" height="10" tabindex="0" role="button" rx="3" aria-label="port ^output" data-port="NodeBackupAlarmWhiteBox::driver::output" data-side="e" data-dir="out" data-px="844" data-py="65"/><path class="pd" d="M181,22 L187,25 L181,28"/><text class="ft" x="263" y="75" text-anchor="start" data-port="NodeBackupAlarmWhiteBox::driver::output" data-px="844" data-py="65">^output : GpioOutPort</text><rect class="pt cj" x="87" y="44" width="10" height="10" tabindex="0" role="button" rx="3" aria-label="conjugated port ^supply" data-port="NodeBackupAlarmWhiteBox::driver::supply" data-side="s" data-dir="in" data-px="752" data-py="89"/><path class="pd" d="M89,52 L92,46 L95,52"/><text class="ft" x="231" y="70" text-anchor="end" data-port="NodeBackupAlarmWhiteBox::driver::supply" data-px="752" data-py="89">^supply : ~PowerPort</text></g><g class="nd" tabindex="0" role="button" aria-pressed="false" aria-label="part holdUp" data-el="NodeBackupAlarmWhiteBox::holdUp" data-x="500" data-y="300" data-w="150" data-h="49" data-plain="1" transform="translate(500,300)"><rect class="bx" width="150" height="49" rx="10"/><rect class="hd" x="1" y="1" width="148" height="33" rx="1"/><text class="kk kw" x="75" y="11.5" text-anchor="middle">«part»</text><text class="nn bd" x="75" y="27" text-anchor="middle">holdUp : HoldUp</text><rect class="pt cj" x="-5" y="20" width="10" height="10" tabindex="0" role="button" rx="3" aria-label="conjugated port ^charge" data-port="NodeBackupAlarmWhiteBox::holdUp::charge" data-side="w" data-dir="in" data-px="500" data-py="325"/><path class="pd" d="M-3,22 L3,25 L-3,28"/><text class="ft" x="-9" y="41" text-anchor="end" data-port="NodeBackupAlarmWhiteBox::holdUp::charge" data-px="500" data-py="325">^charge : ~PowerPort</text><rect class="pt" x="70" y="-5" width="10" height="10" tabindex="0" role="button" rx="3" aria-label="port ^terminal" data-port="NodeBackupAlarmWhiteBox::holdUp::terminal" data-side="n" data-dir="out" data-px="575" data-py="300"/><path class="pd" d="M72,3 L75,-3 L78,3"/><text class="ft" x="66" y="-10" text-anchor="end" data-port="NodeBackupAlarmWhiteBox::holdUp::terminal" data-px="575" data-py="300">^terminal : PowerPort</text></g><g class="nd" tabindex="0" role="button" aria-pressed="false" aria-label="part buzzer" data-el="NodeBackupAlarmWhiteBox::buzzer" data-x="980" data-y="40" data-w="150" data-h="49" data-plain="1" transform="translate(980,40)"><rect class="bx" width="150" height="49" rx="10"/><rect class="hd" x="1" y="1" width="148" height="33" rx="1"/><text class="kk kw" x="75" y="11.5" text-anchor="middle">«part»</text><text class="nn bd" x="75" y="27" text-anchor="middle">buzzer</text><rect class="pt cj" x="-5" y="20" width="10" height="10" tabindex="0" role="button" rx="3" aria-label="conjugated port backupDrive" data-port="NodeBackupAlarmWhiteBox::buzzer::backupDrive" data-side="w" data-dir="in" data-px="980" data-py="65"/><path class="pd" d="M-3,22 L3,25 L-3,28"/><path class="rule" d="M-177.5,95 L-131,25" stroke-dasharray="2 3" data-pinleader="NodeBackupAlarmWhiteBox::buzzer::backupDrive"/><text class="ft" x="-95.5" y="107" text-anchor="end" data-port="NodeBackupAlarmWhiteBox::buzzer::backupDrive" data-px="980" data-py="65">backupDrive : ~GpioOutPort</text></g><g class="nd" tabindex="0" role="button" aria-pressed="false" aria-label="part power" data-el="NodeBackupAlarmWhiteBox::power" data-x="20" data-y="300" data-w="150" data-h="49" data-plain="1" transform="translate(20,300)"><rect class="bx" width="150" height="49" rx="10"/><rect class="hd" x="1" y="1" width="148" height="33" rx="1"/><text class="kk kw" x="75" y="11.5" text-anchor="middle">«part»</text><text class="nn bd" x="75" y="27" text-anchor="middle">power</text><rect class="pt" x="145" y="20" width="10" height="10" tabindex="0" role="button" rx="3" aria-label="port supply" data-port="NodeBackupAlarmWhiteBox::power::supply" data-side="e" data-dir="out" data-px="170" data-py="325"/><path class="pd" d="M147,22 L153,25 L147,28"/><text class="ft" x="159" y="41" text-anchor="start" data-port="NodeBackupAlarmWhiteBox::power::supply" data-px="170" data-py="325">supply : PowerPort</text></g><g class="nd" tabindex="0" role="button" aria-pressed="false" aria-label="part supervision" data-el="NodeBackupAlarmWhiteBox::supervision" data-x="20" data-y="40" data-w="150" data-h="49" data-plain="1" transform="translate(20,40)"><rect class="bx" width="150" height="49" rx="10"/><rect class="hd" x="1" y="1" width="148" height="33" rx="1"/><text class="kk kw" x="75" y="11.5" text-anchor="middle">«part»</text><text class="nn bd" x="75" y="27" text-anchor="middle">supervision</text><rect class="pt" x="145" y="20" width="10" height="10" tabindex="0" role="button" rx="3" aria-label="port kick" data-port="NodeBackupAlarmWhiteBox::supervision::kick" data-side="e" data-dir="out" data-px="170" data-py="65"/><path class="pd" d="M147,22 L153,25 L147,28"/><text class="ft" x="155" y="20" text-anchor="start" data-port="NodeBackupAlarmWhiteBox::supervision::kick" data-px="170" data-py="65">kick : GpioOutPort</text></g><path class="ed" d="M175,65 L335,65" data-el="NodeBackupAlarmWhiteBox::supervision::kick" data-edge="NodeBackupAlarmWhiteBox::timer::kick&gt;interface" data-from="NodeBackupAlarmWhiteBox::supervision::kick" data-to="NodeBackupAlarmWhiteBox::timer::kick" /><path class="rule" d="M270,108 L270,65" stroke-dasharray="2 3" data-leader="NodeBackupAlarmWhiteBox::supervision::kick|NodeBackupAlarmWhiteBox::timer::kick&gt;interface"/><text class="edl" x="270" y="120" text-anchor="middle" data-word="NodeBackupAlarmWhiteBox::supervision::kick|NodeBackupAlarmWhiteBox::timer::kick&gt;interface">kickLine : SignalLine</text><path class="ed" d="M175,325 L495,325" data-el="NodeBackupAlarmWhiteBox::power::supply" data-edge="NodeBackupAlarmWhiteBox::holdUp::charge&gt;interface" data-from="NodeBackupAlarmWhiteBox::power::supply" data-to="NodeBackupAlarmWhiteBox::holdUp::charge" /><text class="edl" x="375.5" y="320" text-anchor="middle" data-word="NodeBackupAlarmWhiteBox::power::supply|NodeBackupAlarmWhiteBox::holdUp::charge&gt;interface">charge : PowerFeed</text><path class="ed" d="M575,295 L575,160 Q575,154 569,154 L430,154 Q424,154 424,148 L424,94" data-el="NodeBackupAlarmWhiteBox::holdUp::terminal" data-edge="NodeBackupAlarmWhiteBox::timer::holdUp&gt;interface" data-from="NodeBackupAlarmWhiteBox::holdUp::terminal" data-to="NodeBackupAlarmWhiteBox::timer::holdUp" /><text class="edl" x="343" y="154" text-anchor="middle" data-word="NodeBackupAlarmWhiteBox::holdUp::terminal|NodeBackupAlarmWhiteBox::timer::holdUp&gt;interface">timerFeed : PowerFeed</text><path class="ed" d="M575,295 L575,129 Q575,123 581,123 L746,123 Q752,123 752,117 L752,94" data-el="NodeBackupAlarmWhiteBox::holdUp::terminal" data-edge="NodeBackupAlarmWhiteBox::driver::supply&gt;interface" data-from="NodeBackupAlarmWhiteBox::holdUp::terminal" data-to="NodeBackupAlarmWhiteBox::driver::supply" /><text class="edl" x="508" y="107" text-anchor="middle" data-word="NodeBackupAlarmWhiteBox::holdUp::terminal|NodeBackupAlarmWhiteBox::driver::supply&gt;interface">driverFeed : PowerFeed</text><path class="ed" d="M513,65 L655,65" data-el="NodeBackupAlarmWhiteBox::timer::alarmOut" data-edge="NodeBackupAlarmWhiteBox::driver::input&gt;connect" data-from="NodeBackupAlarmWhiteBox::timer::alarmOut" data-to="NodeBackupAlarmWhiteBox::driver::input" /><path class="ed" d="M849,65 L975,65" data-el="NodeBackupAlarmWhiteBox::driver::output" data-edge="NodeBackupAlarmWhiteBox::buzzer::backupDrive&gt;connect" data-from="NodeBackupAlarmWhiteBox::driver::output" data-to="NodeBackupAlarmWhiteBox::buzzer::backupDrive" /></g></svg>